;TYPE=PLATED
;Layer: PTH_Through_Via
;EasyEDA Pro v2.1.32.5533625a.f972c4, 2023-12-06 19:29:04
;Gerber Generator version 0.3
M48
METRIC,LZ,000.000
;Hole size 1 = 0.305 METRIC
T01C0.305
%
G05
G90
T01
X004064Y-006923
X004009Y-003420
X017700Y-018669
X017700Y-017399
X001371Y-025719
X004471Y-024319
X001371Y-024319
X004471Y-025719
X005198Y-017653
X003692Y-017653
X003692Y-019812
X005198Y-019812
X005198Y-021971
X003692Y-021971
X012192Y-017653
X012954Y-017653
X013716Y-017653
X017700Y-019939
X017700Y-021209
X007700Y-018669
X007747Y-013589
X007747Y-014859
X010541Y-019177
X009779Y-005334
X022860Y-004473
X022869Y-007493
X017780Y-009779
X017750Y-007239
X022191Y-018796
X021638Y-016151
X026670Y-020193
X026670Y-021300
X026670Y-019110
X022733Y-012192
X022733Y-012954
X001270Y-017399
X001270Y-018923
X001270Y-020396
X025146Y-005969
X024384Y-005969
X025908Y-005969
X018542Y-004699
X002159Y-017424
X002159Y-018948
X002159Y-020422
X024384Y-003175
X025146Y-003175
X025908Y-003175
X024384Y-008763
X025146Y-008763
X025908Y-008763
X012319Y-005334
X004064Y-013142
X004008Y-011041
X004008Y-001913
X004008Y-009533
X024242Y-017846
X017700Y-012319
X013335Y-012319
X004064Y-014543
M30