G04 Layer: BottomPasteMaskLayer*
G04 EasyEDA Pro v2.1.32.5533625a.f972c4, 2023-12-06 19:29:04*
G04 Gerber Generator version 0.3*
G04 Scale: 100 percent, Rotated: No, Reflected: No*
G04 Dimensions in millimeters*
G04 Leading zeros omitted, absolute positions, 3 integers and 3 decimals*
%FSLAX33Y33*%
%MOMM*%
%ADD10R,0.9X0.8*%
%ADD11O,0.588X2.045*%
%ADD12R,0.42X0.505*%
%ADD13R,1.1X0.4*%
%ADD14R,0.9X0.8*%
G75*


G04 PolygonModel Start*
G36*
G01X3250Y-17203D02*
G01X4050Y-17203D01*
G01X4100Y-17253D01*
G01Y-17481D01*
G01X3730D01*
G01Y-17811D01*
G01X4100D01*
G01Y-18053D01*
G01X4050Y-18103D01*
G01X3250D01*
G01X3200Y-18053D01*
G01Y-17253D01*
G01X3250Y-17203D01*
G37*
G36*
G01X4800Y-17253D02*
G01X4800Y-17481D01*
G01X5180D01*
G01Y-17811D01*
G01X4800D01*
G01Y-18053D01*
G01X4850Y-18103D01*
G01X5640D01*
G01X5690Y-18053D01*
G01Y-17253D01*
G01X5640Y-17203D01*
G01X4850D01*
G01X4800Y-17253D01*
G37*
G36*
G01X3250Y-19362D02*
G01X4050Y-19362D01*
G01X4100Y-19412D01*
G01Y-19640D01*
G01X3730D01*
G01Y-19970D01*
G01X4100D01*
G01Y-20212D01*
G01X4050Y-20262D01*
G01X3250D01*
G01X3200Y-20212D01*
G01Y-19412D01*
G01X3250Y-19362D01*
G37*
G36*
G01X4800Y-19412D02*
G01X4800Y-19640D01*
G01X5180D01*
G01Y-19970D01*
G01X4800D01*
G01Y-20212D01*
G01X4850Y-20262D01*
G01X5640D01*
G01X5690Y-20212D01*
G01Y-19412D01*
G01X5640Y-19362D01*
G01X4850D01*
G01X4800Y-19412D01*
G37*
G36*
G01X3250Y-21521D02*
G01X4050Y-21521D01*
G01X4100Y-21571D01*
G01Y-21799D01*
G01X3730D01*
G01Y-22129D01*
G01X4100D01*
G01Y-22371D01*
G01X4050Y-22421D01*
G01X3250D01*
G01X3200Y-22371D01*
G01Y-21571D01*
G01X3250Y-21521D01*
G37*
G36*
G01X4800Y-21571D02*
G01X4800Y-21799D01*
G01X5180D01*
G01Y-22129D01*
G01X4800D01*
G01Y-22371D01*
G01X4850Y-22421D01*
G01X5640D01*
G01X5690Y-22371D01*
G01Y-21571D01*
G01X5640Y-21521D01*
G01X4850D01*
G01X4800Y-21571D01*
G37*
G36*
G01X4459Y-1472D02*
G01X4459Y-2272D01*
G01X4409Y-2322D01*
G01X4181D01*
G01Y-1952D01*
G01X3851D01*
G01Y-2322D01*
G01X3609D01*
G01X3559Y-2272D01*
G01Y-1472D01*
G01X3609Y-1422D01*
G01X4409D01*
G01X4459Y-1472D01*
G37*
G36*
G01X4409Y-3022D02*
G01X4181Y-3022D01*
G01Y-3402D01*
G01X3851D01*
G01Y-3022D01*
G01X3609D01*
G01X3559Y-3072D01*
G01Y-3862D01*
G01X3609Y-3912D01*
G01X4409D01*
G01X4459Y-3862D01*
G01Y-3072D01*
G01X4409Y-3022D01*
G37*
G36*
G01X3559Y-11482D02*
G01X3559Y-10682D01*
G01X3609Y-10632D01*
G01X3837D01*
G01Y-11002D01*
G01X4167D01*
G01Y-10632D01*
G01X4409D01*
G01X4459Y-10682D01*
G01Y-11482D01*
G01X4409Y-11532D01*
G01X3609D01*
G01X3559Y-11482D01*
G37*
G36*
G01X3609Y-9932D02*
G01X3837Y-9932D01*
G01Y-9552D01*
G01X4167D01*
G01Y-9932D01*
G01X4409D01*
G01X4459Y-9882D01*
G01Y-9092D01*
G01X4409Y-9042D01*
G01X3609D01*
G01X3559Y-9092D01*
G01Y-9882D01*
G01X3609Y-9932D01*
G37*
G36*
G01X24817Y-7943D02*
G01X24017Y-7943D01*
G01X23967Y-7893D01*
G01Y-7665D01*
G01X24337D01*
G01Y-7335D01*
G01X23967D01*
G01Y-7093D01*
G01X24017Y-7043D01*
G01X24817D01*
G01X24867Y-7093D01*
G01Y-7893D01*
G01X24817Y-7943D01*
G37*
G36*
G01X23267Y-7893D02*
G01X23267Y-7665D01*
G01X22887D01*
G01Y-7335D01*
G01X23267D01*
G01Y-7093D01*
G01X23217Y-7043D01*
G01X22427D01*
G01X22377Y-7093D01*
G01Y-7893D01*
G01X22427Y-7943D01*
G01X23217D01*
G01X23267Y-7893D01*
G37*
G36*
G01X22427Y-3995D02*
G01X23227Y-3995D01*
G01X23277Y-4045D01*
G01Y-4273D01*
G01X22907D01*
G01Y-4603D01*
G01X23277D01*
G01Y-4845D01*
G01X23227Y-4895D01*
G01X22427D01*
G01X22377Y-4845D01*
G01Y-4045D01*
G01X22427Y-3995D01*
G37*
G36*
G01X23977Y-4045D02*
G01X23977Y-4273D01*
G01X24357D01*
G01Y-4603D01*
G01X23977D01*
G01Y-4845D01*
G01X24027Y-4895D01*
G01X24817D01*
G01X24867Y-4845D01*
G01Y-4045D01*
G01X24817Y-3995D01*
G01X24027D01*
G01X23977Y-4045D01*
G37*
G36*
G01X13355Y-8567D02*
G01X14155Y-8567D01*
G01X14205Y-8617D01*
G01Y-8845D01*
G01X13835D01*
G01Y-9175D01*
G01X14205D01*
G01Y-9417D01*
G01X14155Y-9467D01*
G01X13355D01*
G01X13305Y-9417D01*
G01Y-8617D01*
G01X13355Y-8567D01*
G37*
G36*
G01X14905Y-8617D02*
G01X14905Y-8845D01*
G01X15285D01*
G01Y-9175D01*
G01X14905D01*
G01Y-9417D01*
G01X14955Y-9467D01*
G01X15745D01*
G01X15795Y-9417D01*
G01Y-8617D01*
G01X15745Y-8567D01*
G01X14955D01*
G01X14905Y-8617D01*
G37*
G36*
G01X13355Y-10218D02*
G01X14155Y-10218D01*
G01X14205Y-10268D01*
G01Y-10496D01*
G01X13835D01*
G01Y-10826D01*
G01X14205D01*
G01Y-11068D01*
G01X14155Y-11118D01*
G01X13355D01*
G01X13305Y-11068D01*
G01Y-10268D01*
G01X13355Y-10218D01*
G37*
G36*
G01X14905Y-10268D02*
G01X14905Y-10496D01*
G01X15285D01*
G01Y-10826D01*
G01X14905D01*
G01Y-11068D01*
G01X14955Y-11118D01*
G01X15745D01*
G01X15795Y-11068D01*
G01Y-10268D01*
G01X15745Y-10218D01*
G01X14955D01*
G01X14905Y-10268D01*
G37*
G36*
G01X13355Y-6916D02*
G01X14155Y-6916D01*
G01X14205Y-6966D01*
G01Y-7194D01*
G01X13835D01*
G01Y-7524D01*
G01X14205D01*
G01Y-7766D01*
G01X14155Y-7816D01*
G01X13355D01*
G01X13305Y-7766D01*
G01Y-6966D01*
G01X13355Y-6916D01*
G37*
G36*
G01X14905Y-6966D02*
G01X14905Y-7194D01*
G01X15285D01*
G01Y-7524D01*
G01X14905D01*
G01Y-7766D01*
G01X14955Y-7816D01*
G01X15745D01*
G01X15795Y-7766D01*
G01Y-6966D01*
G01X15745Y-6916D01*
G01X14955D01*
G01X14905Y-6966D01*
G37*
G36*
G01X9964Y-9286D02*
G01X9964Y-8486D01*
G01X10014Y-8435D01*
G01X10242D01*
G01Y-8805D01*
G01X10572D01*
G01Y-8435D01*
G01X10814D01*
G01X10864Y-8486D01*
G01Y-9286D01*
G01X10814Y-9335D01*
G01X10014D01*
G01X9964Y-9286D01*
G37*
G36*
G01X10014Y-7735D02*
G01X10242Y-7735D01*
G01Y-7356D01*
G01X10572D01*
G01Y-7735D01*
G01X10814D01*
G01X10864Y-7686D01*
G01Y-6896D01*
G01X10814Y-6846D01*
G01X10014D01*
G01X9964Y-6896D01*
G01Y-7686D01*
G01X10014Y-7735D01*
G37*
G36*
G01X11615Y-9286D02*
G01X11615Y-8486D01*
G01X11665Y-8435D01*
G01X11893D01*
G01Y-8805D01*
G01X12223D01*
G01Y-8435D01*
G01X12465D01*
G01X12515Y-8486D01*
G01Y-9286D01*
G01X12465Y-9335D01*
G01X11665D01*
G01X11615Y-9286D01*
G37*
G36*
G01X11665Y-7735D02*
G01X11893Y-7735D01*
G01Y-7356D01*
G01X12223D01*
G01Y-7735D01*
G01X12465D01*
G01X12515Y-7686D01*
G01Y-6896D01*
G01X12465Y-6846D01*
G01X11665D01*
G01X11615Y-6896D01*
G01Y-7686D01*
G01X11665Y-7735D01*
G37*
G04 PolygonModel End*

G04 Pad Start*
G54D10*
G01X4064Y-6923D03*
G01X4064Y-5523D03*
G01X4064Y-14543D03*
G01X4064Y-13143D03*
G54D11*
G01X21638Y-16151D03*
G01X22908Y-16151D03*
G01X24178Y-16151D03*
G01X25448Y-16151D03*
G01X21638Y-21695D03*
G01X22908Y-21695D03*
G01X24178Y-21695D03*
G01X25448Y-21695D03*
G54D12*
G01X17296Y-13539D03*
G01X18097Y-13539D03*
G01X18097Y-14893D03*
G01X17296Y-14893D03*
G54D13*
G01X17696Y-14216D03*
G54D14*
G01X7747Y-5399D03*
G01X7747Y-3999D03*
G04 Pad End*

M02*
