G04 Layer: BottomSilkscreenLayer*
G04 EasyEDA Pro v2.1.32.5533625a.f972c4, 2023-12-06 19:29:04*
G04 Gerber Generator version 0.3*
G04 Scale: 100 percent, Rotated: No, Reflected: No*
G04 Dimensions in millimeters*
G04 Leading zeros omitted, absolute positions, 3 integers and 3 decimals*
%FSLAX33Y33*%
%MOMM*%
%ADD10C,0.152*%
%ADD11C,0.254*%
%ADD12C,0.3*%
%ADD13C,0.075*%
G75*


G04 Image Start*
G36*
G01X16305Y-18104D02*
G01X16301Y-18104D01*
G01X16297Y-18105D01*
G01X16293Y-18106D01*
G01X16285Y-18108D01*
G01X16281Y-18109D01*
G01X16277Y-18111D01*
G01X16271Y-18114D01*
G01X16260Y-18121D01*
G01X16254Y-18125D01*
G01X16249Y-18131D01*
G01X16244Y-18136D01*
G01X16239Y-18142D01*
G01X16232Y-18151D01*
G01X16225Y-18160D01*
G01X16217Y-18174D01*
G01X16209Y-18189D01*
G01X16200Y-18209D01*
G01X16189Y-18236D01*
G01X16177Y-18270D01*
G01X16164Y-18319D01*
G01X16145Y-18399D01*
G01X16121Y-18539D01*
G01X16086Y-18827D01*
G01X16015Y-19905D01*
G01X15964Y-20660D01*
G01X15921Y-21041D01*
G01X15905Y-21128D01*
G01X15898Y-21154D01*
G01X15892Y-21167D01*
G01X15890Y-21168D01*
G01X15886D01*
G01X15877D01*
G01X15862Y-21167D01*
G01X15845Y-21163D01*
G01X15802Y-21153D01*
G01X15752Y-21137D01*
G01X15685Y-21117D01*
G01X15620Y-21103D01*
G01X15561Y-21096D01*
G01X15533Y-21094D01*
G01X15506Y-21095D01*
G01X15481Y-21096D01*
G01X15457Y-21100D01*
G01X15436Y-21105D01*
G01X15416Y-21111D01*
G01X15398Y-21120D01*
G01X15383Y-21129D01*
G01X15369Y-21140D01*
G01X15358Y-21153D01*
G01X15315Y-21212D01*
G01X15208Y-21146D01*
G01X15173Y-21124D01*
G01X15148Y-21106D01*
G01X15138Y-21098D01*
G01X15130Y-21089D01*
G01X15123Y-21080D01*
G01X15118Y-21071D01*
G01X15115Y-21062D01*
G01X15112Y-21051D01*
G01X15111Y-21039D01*
G01Y-21026D01*
G01Y-21010D01*
G01X15119Y-20952D01*
G01X15128Y-20898D01*
G01X15138Y-20855D01*
G01X15144Y-20839D01*
G01X15150Y-20825D01*
G01X15157Y-20814D01*
G01X15164Y-20806D01*
G01X15172Y-20800D01*
G01X15182Y-20797D01*
G01X15192Y-20796D01*
G01X15203Y-20798D01*
G01X15216Y-20801D01*
G01X15230Y-20807D01*
G01X15245Y-20815D01*
G01X15262Y-20825D01*
G01X15294Y-20843D01*
G01X15324Y-20853D01*
G01X15352Y-20858D01*
G01X15377Y-20856D01*
G01X15398Y-20849D01*
G01X15414Y-20836D01*
G01X15424Y-20816D01*
G01X15427Y-20792D01*
G01X15426Y-20786D01*
G01X15425Y-20780D01*
G01X15422Y-20772D01*
G01X15419Y-20764D01*
G01X15409Y-20746D01*
G01X15395Y-20725D01*
G01X15379Y-20704D01*
G01X15351Y-20669D01*
G01X15318Y-20635D01*
G01X15209Y-20528D01*
G01X15277Y-20323D01*
G01X15311Y-20216D01*
G01X15345Y-20095D01*
G01X15357Y-20036D01*
G01X15360Y-20011D01*
G01X15361Y-19990D01*
G01X15360Y-19972D01*
G01X15357Y-19956D01*
G01X15353Y-19943D01*
G01X15346Y-19932D01*
G01X15337Y-19922D01*
G01X15326Y-19914D01*
G01X15314Y-19907D01*
G01X15305Y-19903D01*
G01X15296Y-19899D01*
G01X15287Y-19896D01*
G01X15278Y-19894D01*
G01X15268Y-19893D01*
G01X15258Y-19892D01*
G01X15248D01*
G01X15236D01*
G01X15224Y-19894D01*
G01X15197Y-19898D01*
G01X15167Y-19905D01*
G01X15112Y-19922D01*
G01X15073Y-19935D01*
G01X14991Y-19973D01*
G01X14909Y-20018D01*
G01X14831Y-20070D01*
G01X14760Y-20124D01*
G01X14702Y-20178D01*
G01X14678Y-20204D01*
G01X14659Y-20229D01*
G01X14646Y-20250D01*
G01X14899D01*
G01X14901Y-20241D01*
G01X14909Y-20231D01*
G01X14922Y-20219D01*
G01X14941Y-20206D01*
G01X14968Y-20188D01*
G01X14997Y-20172D01*
G01X15026Y-20159D01*
G01X15049Y-20150D01*
G01X15063Y-20148D01*
G01X15073Y-20147D01*
G01X15080Y-20149D01*
G01X15084Y-20154D01*
G01X15085Y-20163D01*
G01X15084Y-20175D01*
G01X15080Y-20191D01*
G01X15073Y-20212D01*
G01X15038Y-20325D01*
G01X15035Y-20334D01*
G01X15030Y-20340D01*
G01X15023Y-20343D01*
G01X15014Y-20342D01*
G01X15003Y-20338D01*
G01X14990Y-20331D01*
G01X14974Y-20320D01*
G01X14955Y-20305D01*
G01X14914Y-20272D01*
G01X14904Y-20260D01*
G01X14899Y-20250D01*
G01X14646D01*
G01X14644Y-20252D01*
G01X14635Y-20273D01*
G01X14632Y-20292D01*
G01X14633Y-20298D01*
G01X14635Y-20305D01*
G01X14640Y-20313D01*
G01X14645Y-20323D01*
G01X14652Y-20333D01*
G01X14670Y-20357D01*
G01X14692Y-20384D01*
G01X14733Y-20428D01*
G01X14797Y-20489D01*
G01X14962Y-20637D01*
G01X14942Y-20778D01*
G01X14922Y-20919D01*
G01X14778Y-20847D01*
G01X14754Y-20836D01*
G01X14718Y-20820D01*
G01X14685Y-20809D01*
G01X14653Y-20800D01*
G01X14633Y-20795D01*
G01X14614Y-20792D01*
G01X14596Y-20791D01*
G01X14579D01*
G01X14563D01*
G01X14548Y-20794D01*
G01X14533Y-20798D01*
G01X14526Y-20800D01*
G01X14520Y-20802D01*
G01X14507Y-20808D01*
G01X14502Y-20812D01*
G01X14491Y-20820D01*
G01X14486Y-20824D01*
G01X14476Y-20834D01*
G01X14472Y-20839D01*
G01X14468Y-20845D01*
G01X14461Y-20857D01*
G01X14455Y-20870D01*
G01X14450Y-20885D01*
G01X14446Y-20900D01*
G01X14443Y-20917D01*
G01X14442Y-20935D01*
G01X14441Y-20954D01*
G01X14442Y-20974D01*
G01X14444Y-20995D01*
G01X14449Y-21029D01*
G01X14450Y-21034D01*
G01X14644D01*
G01X14646Y-21015D01*
G01X14648Y-21014D01*
G01X14651D01*
G01X14655D01*
G01X14661Y-21015D01*
G01X14667Y-21018D01*
G01X14682Y-21024D01*
G01X14700Y-21033D01*
G01X14731Y-21050D01*
G01X14779Y-21079D01*
G01X14824Y-21111D01*
G01X14845Y-21127D01*
G01X14856Y-21137D01*
G01X14866Y-21148D01*
G01X14870Y-21153D01*
G01X14874Y-21158D01*
G01X14877Y-21163D01*
G01X14880Y-21169D01*
G01X14883Y-21174D01*
G01X14885Y-21181D01*
G01X14887Y-21187D01*
G01X14891Y-21200D01*
G01X14894Y-21216D01*
G01X14896Y-21242D01*
G01X14897Y-21269D01*
G01X15495D01*
G01Y-21264D01*
G01X15497Y-21259D01*
G01X15499Y-21256D01*
G01X15503Y-21254D01*
G01X15508Y-21252D01*
G01X15514D01*
G01X15522D01*
G01X15544Y-21255D01*
G01X15591Y-21264D01*
G01X15714Y-21296D01*
G01X15762Y-21313D01*
G01X15800Y-21330D01*
G01X15829Y-21348D01*
G01X15848Y-21365D01*
G01X15857Y-21384D01*
G01X15856Y-21403D01*
G01X15808Y-21583D01*
G01X15793Y-21637D01*
G01X15777Y-21682D01*
G01X15762Y-21715D01*
G01X15751Y-21731D01*
G01X15745Y-21730D01*
G01X15735Y-21722D01*
G01X15723Y-21707D01*
G01X15708Y-21686D01*
G01X15672Y-21632D01*
G01X15592Y-21492D01*
G01X15537Y-21385D01*
G01X15512Y-21326D01*
G01X15503Y-21302D01*
G01X15498Y-21283D01*
G01X15496Y-21276D01*
G01X15495Y-21269D01*
G01X14897D01*
G01Y-21311D01*
G01X14896Y-21370D01*
G01X14890Y-21417D01*
G01X14883Y-21450D01*
G01X14875Y-21461D01*
G01X14865Y-21459D01*
G01X14848Y-21453D01*
G01X14827Y-21444D01*
G01X14781Y-21422D01*
G01X14740Y-21399D01*
G01X14726Y-21390D01*
G01X14716Y-21370D01*
G01X14703Y-21327D01*
G01X14673Y-21202D01*
G01X14649Y-21077D01*
G01X14644Y-21034D01*
G01X14450D01*
G01X14457Y-21065D01*
G01X14467Y-21104D01*
G01X14497Y-21199D01*
G01X14530Y-21300D01*
G01X14532Y-21306D01*
G01Y-21311D01*
G01X14531Y-21315D01*
G01X14528Y-21319D01*
G01X14526Y-21321D01*
G01X14524Y-21322D01*
G01X14518Y-21325D01*
G01X14514Y-21327D01*
G01X14504Y-21329D01*
G01X14493Y-21331D01*
G01X14480Y-21333D01*
G01X14445Y-21335D01*
G01X14332Y-21337D01*
G01X14271D01*
G01X14184Y-21340D01*
G01X14155Y-21344D01*
G01X14135Y-21350D01*
G01X14121Y-21359D01*
G01X14113Y-21370D01*
G01X14108Y-21384D01*
G01X14107Y-21404D01*
G01X14112Y-21419D01*
G01X14122Y-21430D01*
G01X14137Y-21434D01*
G01X14142D01*
G01X14148Y-21435D01*
G01X14168Y-21440D01*
G01X14222Y-21456D01*
G01X14302Y-21485D01*
G01X15023D01*
G01Y-21470D01*
G01X15027Y-21452D01*
G01X15033Y-21425D01*
G01X15039Y-21395D01*
G01X15042Y-21366D01*
G01X15044Y-21342D01*
G01X15046Y-21320D01*
G01X15052Y-21305D01*
G01X15061Y-21296D01*
G01X15071Y-21294D01*
G01X15082Y-21298D01*
G01X15093Y-21309D01*
G01X15103Y-21326D01*
G01X15112Y-21349D01*
G01X15115Y-21357D01*
G01X15117Y-21364D01*
G01X15121Y-21371D01*
G01X15125Y-21377D01*
G01X15130Y-21383D01*
G01X15136Y-21387D01*
G01X15142Y-21391D01*
G01X15150Y-21394D01*
G01X15159Y-21397D01*
G01X15169Y-21400D01*
G01X15180Y-21402D01*
G01X15206Y-21405D01*
G01X15259Y-21406D01*
G01X15299D01*
G01X15331Y-21408D01*
G01X15344Y-21410D01*
G01X15356Y-21412D01*
G01X15366Y-21416D01*
G01X15376Y-21420D01*
G01X15384Y-21425D01*
G01X15391Y-21431D01*
G01X15398Y-21438D01*
G01X15405Y-21446D01*
G01X15410Y-21456D01*
G01X15416Y-21467D01*
G01X15428Y-21494D01*
G01X15443Y-21523D01*
G01X15488Y-21604D01*
G01X15622Y-21820D01*
G01X15761Y-22038D01*
G01X15771Y-22056D01*
G01X15769D01*
G01X15766Y-22054D01*
G01X15560Y-21948D01*
G01X15449Y-21888D01*
G01X15414Y-21865D01*
G01X15389Y-21845D01*
G01X15373Y-21826D01*
G01X15364Y-21807D01*
G01X15361Y-21787D01*
G01X15363Y-21763D01*
G01X15364Y-21754D01*
G01X15365Y-21735D01*
G01Y-21719D01*
G01X15364Y-21710D01*
G01X15363Y-21703D01*
G01X15361Y-21695D01*
G01X15359Y-21688D01*
G01X15356Y-21681D01*
G01X15353Y-21674D01*
G01X15350Y-21668D01*
G01X15342Y-21656D01*
G01X15337Y-21649D01*
G01X15331Y-21643D01*
G01X15325Y-21638D01*
G01X15311Y-21627D01*
G01X15294Y-21616D01*
G01X15276Y-21606D01*
G01X15254Y-21596D01*
G01X15217Y-21580D01*
G01X15157Y-21560D01*
G01X15081Y-21533D01*
G01X15056Y-21522D01*
G01X15039Y-21510D01*
G01X15028Y-21499D01*
G01X15023Y-21485D01*
G01X14302D01*
G01X14374Y-21512D01*
G01X14573Y-21589D01*
G01Y-21820D01*
G01X14574Y-21883D01*
G01X14579Y-21980D01*
G01X14584Y-22017D01*
G01X14591Y-22047D01*
G01X14601Y-22073D01*
G01X14613Y-22095D01*
G01X14627Y-22115D01*
G01X14640Y-22129D01*
G01X14653Y-22141D01*
G01X14665Y-22149D01*
G01X14677Y-22156D01*
G01X14688Y-22159D01*
G01X14698Y-22161D01*
G01X14708Y-22159D01*
G01X14717Y-22156D01*
G01X14724Y-22150D01*
G01X14731Y-22142D01*
G01X14737Y-22132D01*
G01X14742Y-22119D01*
G01X14745Y-22104D01*
G01X14748Y-22087D01*
G01Y-22068D01*
G01Y-22047D01*
G01X14745Y-21987D01*
G01X14746Y-21813D01*
G01X14750Y-21667D01*
G01X14959Y-21748D01*
G01X15002Y-21765D01*
G01X15126Y-21806D01*
G01X15192Y-21824D01*
G01X15217Y-21829D01*
G01X15235Y-21830D01*
G01X15253Y-21831D01*
G01X15267Y-21833D01*
G01X15278Y-21837D01*
G01X15286Y-21843D01*
G01X15290Y-21853D01*
G01X15292Y-21865D01*
G01X15291Y-21880D01*
G01X15288Y-21899D01*
G01X15286Y-21909D01*
G01X15285Y-21919D01*
G01Y-21928D01*
G01X15286Y-21936D01*
G01X15288Y-21945D01*
G01X15291Y-21953D01*
G01X15295Y-21961D01*
G01X15300Y-21968D01*
G01X15307Y-21977D01*
G01X15315Y-21985D01*
G01X15324Y-21993D01*
G01X15348Y-22011D01*
G01X15395Y-22042D01*
G01X15470Y-22083D01*
G01X15575Y-22135D01*
G01X15656Y-22170D01*
G01X15682Y-22179D01*
G01X15755Y-22203D01*
G01X15797Y-22214D01*
G01X15836Y-22221D01*
G01X15870Y-22224D01*
G01X15885Y-22225D01*
G01X15899Y-22224D01*
G01X15913Y-22222D01*
G01X15925Y-22220D01*
G01X15935Y-22217D01*
G01X15945Y-22212D01*
G01X15953Y-22207D01*
G01X15961Y-22201D01*
G01X15966Y-22194D01*
G01X15972Y-22186D01*
G01X15975Y-22177D01*
G01X15978Y-22167D01*
G01X15979Y-22156D01*
G01X15978Y-22145D01*
G01X15977Y-22133D01*
G01X15974Y-22119D01*
G01X15971Y-22105D01*
G01X15965Y-22090D01*
G01X15951Y-22058D01*
G01X15931Y-22022D01*
G01X15900Y-21969D01*
G01X15894Y-21955D01*
G01X15888Y-21941D01*
G01X15884Y-21927D01*
G01X15882Y-21920D01*
G01X15881Y-21913D01*
G01X15880Y-21898D01*
G01Y-21882D01*
G01X15881Y-21864D01*
G01X15886Y-21833D01*
G01X15916Y-21694D01*
G01X15959Y-21533D01*
G01X15978Y-21478D01*
G01X15985Y-21460D01*
G01X15990Y-21451D01*
G01X15994Y-21449D01*
G01X15998Y-21448D01*
G01X16005D01*
G01X16012Y-21450D01*
G01X16020Y-21452D01*
G01X16030Y-21455D01*
G01X16052Y-21466D01*
G01X16078Y-21479D01*
G01X16121Y-21506D01*
G01X16170Y-21540D01*
G01X16211Y-21570D01*
G01X16321Y-21644D01*
G01X16381Y-21680D01*
G01X16433Y-21705D01*
G01X16456Y-21714D01*
G01X16477Y-21722D01*
G01X16497Y-21726D01*
G01X16516Y-21728D01*
G01X16532D01*
G01X16549Y-21726D01*
G01X16563Y-21722D01*
G01X16578Y-21716D01*
G01X16589Y-21710D01*
G01X16598Y-21704D01*
G01X16608Y-21698D01*
G01X16615Y-21692D01*
G01X16622Y-21685D01*
G01X16624Y-21681D01*
G01X16627Y-21678D01*
G01X16629Y-21675D01*
G01X16631Y-21671D01*
G01X16634Y-21664D01*
G01X16635Y-21661D01*
G01X16636Y-21657D01*
G01X16637Y-21653D01*
G01Y-21646D01*
G01X16636Y-21642D01*
G01Y-21638D01*
G01X16634Y-21630D01*
G01X16632Y-21626D01*
G01X16630Y-21622D01*
G01X16626Y-21614D01*
G01X16620Y-21605D01*
G01X16613Y-21596D01*
G01X16604Y-21587D01*
G01X16595Y-21577D01*
G01X16578Y-21562D01*
G01X16559Y-21547D01*
G01X16520Y-21519D01*
G01X16462Y-21483D01*
G01X16340Y-21414D01*
G01X16283Y-21384D01*
G01X16039Y-21258D01*
G01X16038Y-21257D01*
G01Y-21256D01*
G01X16037Y-21254D01*
G01X16036Y-21251D01*
G01Y-21248D01*
G01X16035Y-21239D01*
G01Y-21223D01*
G01X16036Y-21194D01*
G01X16042Y-21128D01*
G01X16060Y-20995D01*
G01X16082Y-20839D01*
G01X16134Y-20273D01*
G01X16190Y-19585D01*
G01X16246Y-19149D01*
G01X16293Y-18887D01*
G01X16339Y-18691D01*
G01X16389Y-18490D01*
G01X16418Y-18341D01*
G01X16426Y-18268D01*
G01Y-18237D01*
G01X16424Y-18211D01*
G01X16420Y-18188D01*
G01X16414Y-18169D01*
G01X16405Y-18153D01*
G01X16395Y-18140D01*
G01X16382Y-18128D01*
G01X16367Y-18119D01*
G01X16360Y-18116D01*
G01X16351Y-18112D01*
G01X16344Y-18109D01*
G01X16337Y-18107D01*
G01X16331Y-18106D01*
G01X16317Y-18104D01*
G37*
G36*
G01X12845Y-18246D02*
G01X12823Y-18251D01*
G01X12821Y-18252D01*
G01X12817Y-18253D01*
G01X12811Y-18257D01*
G01X12808Y-18259D01*
G01X12802Y-18264D01*
G01X12800Y-18267D01*
G01X12797Y-18270D01*
G01X12793Y-18274D01*
G01X12789Y-18280D01*
G01X12785Y-18286D01*
G01X12780Y-18297D01*
G01X12774Y-18311D01*
G01X12764Y-18337D01*
G01X12746Y-18393D01*
G01X12619Y-18871D01*
G01X12552Y-19158D01*
G01X12545Y-19210D01*
G01Y-19246D01*
G01X12552Y-19267D01*
G01X12565Y-19279D01*
G01X12585Y-19282D01*
G01X12595Y-19283D01*
G01X12604Y-19287D01*
G01X12612Y-19293D01*
G01X12618Y-19301D01*
G01X12623Y-19313D01*
G01X12627Y-19326D01*
G01X12629Y-19342D01*
G01Y-19359D01*
G01Y-19367D01*
G01X12628Y-19405D01*
G01X12621Y-19473D01*
G01X12600Y-19616D01*
G01X12534Y-19946D01*
G01X12395Y-20499D01*
G01X12261Y-21007D01*
G01X12198Y-21303D01*
G01X12164Y-21514D01*
G01X12141Y-21738D01*
G01X12135Y-21808D01*
G01X12123Y-21910D01*
G01X12116Y-21943D01*
G01X12108Y-21966D01*
G01X12099Y-21981D01*
G01X12088Y-21988D01*
G01X12075Y-21990D01*
G01X12063D01*
G01X12053Y-21992D01*
G01X12044Y-21995D01*
G01X12037Y-22001D01*
G01X12030Y-22008D01*
G01X12025Y-22016D01*
G01X12022Y-22024D01*
G01X12019Y-22034D01*
G01Y-22045D01*
G01Y-22056D01*
G01X12022Y-22068D01*
G01X12025Y-22079D01*
G01X12031Y-22091D01*
G01X12038Y-22103D01*
G01X12046Y-22114D01*
G01X12056Y-22124D01*
G01X12077Y-22143D01*
G01X12099Y-22156D01*
G01X12119Y-22165D01*
G01X12139Y-22169D01*
G01X12159Y-22167D01*
G01X12177Y-22161D01*
G01X12195Y-22151D01*
G01X12211Y-22134D01*
G01X12212Y-22133D01*
G01X12214Y-22128D01*
G01X12225Y-22098D01*
G01X12248Y-22007D01*
G01X12349Y-21519D01*
G01X12514Y-20683D01*
G01X12732Y-19607D01*
G01X12864Y-18966D01*
G01X12951Y-18578D01*
G01X12972Y-18493D01*
G01X12987Y-18419D01*
G01X12994Y-18361D01*
G01Y-18341D01*
G01X12992Y-18329D01*
G01X12980Y-18309D01*
G01X12964Y-18290D01*
G01X12943Y-18274D01*
G01X12920Y-18261D01*
G01X12895Y-18252D01*
G01X12870Y-18247D01*
G37*
G36*
G01X10689Y-19480D02*
G01X10683Y-19480D01*
G01X10678Y-19481D01*
G01X10668Y-19483D01*
G01X10663Y-19485D01*
G01X10658Y-19487D01*
G01X10654Y-19490D01*
G01X10649Y-19493D01*
G01X10644Y-19497D01*
G01X10640Y-19502D01*
G01X10635Y-19507D01*
G01X10630Y-19513D01*
G01X10622Y-19523D01*
G01X10612Y-19540D01*
G01X10598Y-19565D01*
G01X10576Y-19611D01*
G01X10490Y-19820D01*
G01X10462Y-19897D01*
G01X10443Y-19964D01*
G01X10437Y-19992D01*
G01X10434Y-20018D01*
G01X10433Y-20042D01*
G01X10434Y-20062D01*
G01X10438Y-20079D01*
G01X10444Y-20094D01*
G01X10453Y-20106D01*
G01X10464Y-20115D01*
G01X10478Y-20122D01*
G01X10493Y-20125D01*
G01X10512Y-20127D01*
G01X10532Y-20126D01*
G01X10545Y-20124D01*
G01X10566Y-20121D01*
G01X10575Y-20118D01*
G01X10582Y-20115D01*
G01X10588Y-20112D01*
G01X10593Y-20108D01*
G01X10597Y-20103D01*
G01X10600Y-20097D01*
G01X10603Y-20091D01*
G01X10605Y-20083D01*
G01X10606Y-20074D01*
G01Y-20064D01*
G01X10605Y-20052D01*
G01X10603Y-20025D01*
G01X10601Y-19989D01*
G01X10605Y-19960D01*
G01X10611Y-19940D01*
G01X10621Y-19933D01*
G01X10625D01*
G01X10628Y-19934D01*
G01X10631D01*
G01X10633Y-19936D01*
G01X10637Y-19937D01*
G01X10640Y-19940D01*
G01X10642Y-19942D01*
G01X10647Y-19948D01*
G01X10652Y-19955D01*
G01X10657Y-19964D01*
G01X10661Y-19974D01*
G01X10664Y-19986D01*
G01X10668Y-19998D01*
G01X10673Y-20019D01*
G01X10678Y-20052D01*
G01X10681Y-20089D01*
G01X10684Y-20152D01*
G01X10683Y-20249D01*
G01X10674Y-20375D01*
G01X10654Y-20547D01*
G01X10620Y-20756D01*
G01X10614Y-20776D01*
G01X10613Y-20777D01*
G01X10611Y-20778D01*
G01X10610D01*
G01X10608D01*
G01X10607Y-20779D01*
G01X10600D01*
G01X10592Y-20778D01*
G01X10582Y-20776D01*
G01X10557Y-20771D01*
G01X10501Y-20756D01*
G01X10296Y-20689D01*
G01X9184Y-20262D01*
G01X9088Y-20224D01*
G01X8973Y-20185D01*
G01X8914Y-20170D01*
G01X8889Y-20166D01*
G01X8868Y-20164D01*
G01X8848D01*
G01X8832Y-20167D01*
G01X8817Y-20171D01*
G01X8805Y-20177D01*
G01X8793Y-20186D01*
G01X8784Y-20197D01*
G01X8776Y-20209D01*
G01X8766Y-20237D01*
G01X8763Y-20268D01*
G01X8767Y-20298D01*
G01X8775Y-20327D01*
G01X8789Y-20350D01*
G01X8806Y-20368D01*
G01X8826Y-20377D01*
G01X8847Y-20375D01*
G01X8850Y-20374D01*
G01X8854D01*
G01X8858D01*
G01X8868D01*
G01X8880Y-20376D01*
G01X8904Y-20381D01*
G01X8952Y-20394D01*
G01X9037Y-20421D01*
G01X9178Y-20474D01*
G01X9209Y-20487D01*
G01X9507Y-20597D01*
G01X10318Y-20848D01*
G01X10389Y-20869D01*
G01X10486Y-20902D01*
G01X10515Y-20916D01*
G01X10533Y-20930D01*
G01X10545Y-20945D01*
G01X10549Y-20963D01*
G01Y-20984D01*
G01X10548Y-20996D01*
G01X10544Y-21023D01*
G01X10537Y-21052D01*
G01X10523Y-21099D01*
G01X10498Y-21169D01*
G01X10469Y-21236D01*
G01X10660D01*
G01Y-21226D01*
G01X10661Y-21215D01*
G01X10671Y-21148D01*
G01X10681Y-21098D01*
G01X10692Y-21053D01*
G01X10704Y-21019D01*
G01X10714Y-21001D01*
G01X10717Y-20999D01*
G01X10723Y-20998D01*
G01X10730Y-20997D01*
G01X10739Y-20998D01*
G01X10761Y-21001D01*
G01X10805Y-21011D01*
G01X10857Y-21027D01*
G01X10937Y-21055D01*
G01X11023Y-21089D01*
G01X11059Y-21105D01*
G01X11075Y-21115D01*
G01X11082Y-21119D01*
G01X11087Y-21123D01*
G01X11091Y-21127D01*
G01X11093Y-21130D01*
G01X11094Y-21134D01*
G01Y-21138D01*
G01X11092Y-21141D01*
G01X11089Y-21144D01*
G01X11085Y-21148D01*
G01X11078Y-21152D01*
G01X11071Y-21155D01*
G01X11052Y-21162D01*
G01X11027Y-21170D01*
G01X10892Y-21202D01*
G01X10758Y-21236D01*
G01X10705Y-21252D01*
G01X10688Y-21258D01*
G01X10681Y-21259D01*
G01X10676Y-21260D01*
G01X10671Y-21259D01*
G01X10667Y-21257D01*
G01X10664Y-21254D01*
G01X10662Y-21250D01*
G01X10660Y-21244D01*
G01Y-21236D01*
G01X10469D01*
G01X10467Y-21241D01*
G01X10432Y-21313D01*
G01X10394Y-21381D01*
G01X10365Y-21428D01*
G01X10335Y-21469D01*
G01X10316Y-21493D01*
G01X10296Y-21516D01*
G01X10263Y-21562D01*
G01X10250Y-21584D01*
G01X10239Y-21605D01*
G01X10231Y-21625D01*
G01X10224Y-21645D01*
G01X10219Y-21663D01*
G01X10217Y-21681D01*
G01Y-21697D01*
G01X10220Y-21713D01*
G01X10225Y-21727D01*
G01X10232Y-21740D01*
G01X10241Y-21752D01*
G01X10252Y-21762D01*
G01X10266Y-21771D01*
G01X10289Y-21784D01*
G01X10307Y-21793D01*
G01X10315Y-21796D01*
G01X10323Y-21798D01*
G01X10330D01*
G01X10337D01*
G01X10345Y-21797D01*
G01X10353Y-21795D01*
G01X10361Y-21791D01*
G01X10369Y-21787D01*
G01X10379Y-21781D01*
G01X10416Y-21757D01*
G01X10423Y-21752D01*
G01X10431Y-21745D01*
G01X10439Y-21738D01*
G01X10456Y-21720D01*
G01X10473Y-21698D01*
G01X10500Y-21662D01*
G01X10525Y-21622D01*
G01X10548Y-21581D01*
G01X10560Y-21557D01*
G01X10573Y-21536D01*
G01X10587Y-21515D01*
G01X10597Y-21503D01*
G01X10607Y-21491D01*
G01X10618Y-21480D01*
G01X10630Y-21469D01*
G01X10642Y-21459D01*
G01X10655Y-21450D01*
G01X10670Y-21442D01*
G01X10684Y-21434D01*
G01X10701Y-21426D01*
G01X10718Y-21419D01*
G01X10746Y-21410D01*
G01X10776Y-21402D01*
G01X10822Y-21393D01*
G01X10888Y-21383D01*
G01X10998Y-21375D01*
G01X11266Y-21367D01*
G01X11401Y-21364D01*
G01X11551Y-21357D01*
G01X11622Y-21348D01*
G01X11649Y-21342D01*
G01X11671Y-21335D01*
G01X11688Y-21327D01*
G01X11701Y-21318D01*
G01X11709Y-21308D01*
G01X11713Y-21296D01*
G01X11715Y-21283D01*
G01X11712Y-21269D01*
G01X11707Y-21253D01*
G01X11704Y-21248D01*
G01X11702Y-21245D01*
G01X11700Y-21242D01*
G01X11697Y-21238D01*
G01X11690Y-21232D01*
G01X11681Y-21225D01*
G01X11665Y-21213D01*
G01X11638Y-21195D01*
G01X11588Y-21166D01*
G01X11481Y-21109D01*
G01X11278Y-21016D01*
G01X11011Y-20908D01*
G01X10759Y-20814D01*
G01X10765Y-20678D01*
G01X10770Y-20595D01*
G01X10789Y-20391D01*
G01X10809Y-20240D01*
G01X10880Y-20334D01*
G01X10914Y-20376D01*
G01X10945Y-20411D01*
G01X10974Y-20440D01*
G01X10989Y-20452D01*
G01X11003Y-20463D01*
G01X11016Y-20471D01*
G01X11031Y-20480D01*
G01X11044Y-20486D01*
G01X11059Y-20491D01*
G01X11072Y-20495D01*
G01X11087Y-20497D01*
G01X11102Y-20499D01*
G01X11117D01*
G01X11128D01*
G01X11138Y-20498D01*
G01X11148Y-20497D01*
G01X11157Y-20495D01*
G01X11166Y-20492D01*
G01X11174Y-20488D01*
G01X11183Y-20484D01*
G01X11191Y-20480D01*
G01X11198Y-20474D01*
G01X11205Y-20468D01*
G01X11212Y-20461D01*
G01X11218Y-20454D01*
G01X11224Y-20445D01*
G01X11229Y-20436D01*
G01X11234Y-20427D01*
G01X11239Y-20416D01*
G01X11248Y-20393D01*
G01X11255Y-20366D01*
G01X11261Y-20336D01*
G01X11267Y-20284D01*
G01X11272Y-20224D01*
G01X11273Y-20132D01*
G01X11272Y-20095D01*
G01X11264Y-19961D01*
G01X11254Y-19872D01*
G01X11240Y-19794D01*
G01X11229Y-19749D01*
G01X11216Y-19709D01*
G01X11201Y-19675D01*
G01X11194Y-19660D01*
G01X11186Y-19647D01*
G01X11177Y-19635D01*
G01X11168Y-19625D01*
G01X11160Y-19616D01*
G01X11151Y-19609D01*
G01X11141Y-19603D01*
G01X11131Y-19599D01*
G01X11121Y-19597D01*
G01X11111Y-19596D01*
G01X11100Y-19598D01*
G01X11090Y-19600D01*
G01X11079Y-19605D01*
G01X11068Y-19611D01*
G01X11057Y-19619D01*
G01X11046Y-19629D01*
G01X11037Y-19639D01*
G01X11030Y-19650D01*
G01X11024Y-19662D01*
G01X11019Y-19675D01*
G01X11015Y-19689D01*
G01X11013Y-19704D01*
G01X11012Y-19720D01*
G01Y-19737D01*
G01X11014Y-19755D01*
G01X11017Y-19773D01*
G01X11021Y-19793D01*
G01X11034Y-19835D01*
G01X11052Y-19880D01*
G01X11064Y-19911D01*
G01X11087Y-19979D01*
G01X11106Y-20054D01*
G01X11129Y-20168D01*
G01X11139Y-20238D01*
G01X11142Y-20297D01*
G01Y-20322D01*
G01X11140Y-20342D01*
G01X11136Y-20357D01*
G01X11130Y-20366D01*
G01X11126Y-20370D01*
G01X11122Y-20373D01*
G01X11118Y-20375D01*
G01X11114Y-20377D01*
G01X11109Y-20379D01*
G01X11100Y-20380D01*
G01X11096D01*
G01X11091Y-20379D01*
G01X11087Y-20378D01*
G01X11082Y-20376D01*
G01X11077Y-20374D01*
G01X11072Y-20372D01*
G01X11062Y-20366D01*
G01X11057Y-20362D01*
G01X11046Y-20353D01*
G01X11036Y-20342D01*
G01X11026Y-20330D01*
G01X11009Y-20308D01*
G01X10994Y-20284D01*
G01X10977Y-20256D01*
G01X10957Y-20214D01*
G01X10931Y-20156D01*
G01X10902Y-20077D01*
G01X10875Y-19991D01*
G01X10852Y-19898D01*
G01X10833Y-19800D01*
G01X10803Y-19646D01*
G01X10787Y-19590D01*
G01X10772Y-19547D01*
G01X10755Y-19516D01*
G01X10736Y-19495D01*
G01X10715Y-19483D01*
G01X10691Y-19480D01*
G37*
G36*
G01X11940Y-20075D02*
G01X11926Y-20075D01*
G01X11913Y-20076D01*
G01X11901Y-20078D01*
G01X11889Y-20081D01*
G01X11879Y-20085D01*
G01X11869Y-20090D01*
G01X11864Y-20092D01*
G01X11860Y-20095D01*
G01X11856Y-20098D01*
G01X11852Y-20102D01*
G01X11848Y-20105D01*
G01X11845Y-20108D01*
G01X11841Y-20112D01*
G01X11835Y-20120D01*
G01X11832Y-20125D01*
G01X11829Y-20129D01*
G01X11825Y-20139D01*
G01X11821Y-20150D01*
G01X11818Y-20161D01*
G01X11816Y-20173D01*
G01X11814Y-20186D01*
G01Y-20200D01*
G01Y-20214D01*
G01X11815Y-20229D01*
G01X11818Y-20253D01*
G01X11822Y-20279D01*
G01X11831Y-20315D01*
G01X11844Y-20355D01*
G01X11863Y-20408D01*
G01X11894Y-20477D01*
G01X11919Y-20534D01*
G01X11936Y-20583D01*
G01X11947Y-20626D01*
G01X11952Y-20660D01*
G01X11949Y-20686D01*
G01X11940Y-20703D01*
G01X11924Y-20710D01*
G01X11901Y-20706D01*
G01X11884Y-20699D01*
G01X11868Y-20691D01*
G01X11854Y-20683D01*
G01X11840Y-20675D01*
G01X11828Y-20664D01*
G01X11817Y-20654D01*
G01X11807Y-20642D01*
G01X11798Y-20629D01*
G01X11789Y-20616D01*
G01X11782Y-20600D01*
G01X11775Y-20584D01*
G01X11769Y-20566D01*
G01X11764Y-20547D01*
G01X11760Y-20527D01*
G01X11753Y-20481D01*
G01X11750Y-20456D01*
G01X11745Y-20432D01*
G01X11739Y-20411D01*
G01X11733Y-20393D01*
G01X11726Y-20377D01*
G01X11719Y-20364D01*
G01X11710Y-20353D01*
G01X11701Y-20344D01*
G01X11691Y-20338D01*
G01X11680Y-20335D01*
G01X11669Y-20334D01*
G01X11657Y-20336D01*
G01X11644Y-20340D01*
G01X11632Y-20347D01*
G01X11618Y-20357D01*
G01X11604Y-20369D01*
G01X11600Y-20373D01*
G01X11594Y-20380D01*
G01X11587Y-20389D01*
G01X11582Y-20398D01*
G01X11578Y-20408D01*
G01X11574Y-20420D01*
G01X11570Y-20432D01*
G01X11567Y-20446D01*
G01X11565Y-20462D01*
G01X11562Y-20490D01*
G01X11561Y-20534D01*
G01X11562Y-20653D01*
G01X11563Y-20687D01*
G01X11562Y-20798D01*
G01X11559Y-20839D01*
G01X11554Y-20873D01*
G01X11550Y-20887D01*
G01X11546Y-20901D01*
G01X11541Y-20913D01*
G01X11536Y-20925D01*
G01X11530Y-20935D01*
G01X11522Y-20946D01*
G01X11514Y-20956D01*
G01X11495Y-20985D01*
G01X11480Y-21014D01*
G01X11473Y-21040D01*
G01Y-21059D01*
G01X11477Y-21067D01*
G01X11480Y-21075D01*
G01X11485Y-21080D01*
G01X11489Y-21086D01*
G01X11495Y-21089D01*
G01X11501Y-21091D01*
G01X11507Y-21092D01*
G01X11514Y-21091D01*
G01X11522Y-21089D01*
G01X11532Y-21086D01*
G01X11542Y-21081D01*
G01X11565Y-21067D01*
G01X11610Y-21035D01*
G01X11627Y-21022D01*
G01X11642Y-21006D01*
G01X11655Y-20990D01*
G01X11666Y-20973D01*
G01X11675Y-20956D01*
G01X11682Y-20939D01*
G01X11686Y-20921D01*
G01X11687Y-20905D01*
G01X11688Y-20885D01*
G01X11690Y-20870D01*
G01X11693Y-20859D01*
G01X11697Y-20852D01*
G01X11704Y-20848D01*
G01X11713D01*
G01X11725Y-20850D01*
G01X11739Y-20856D01*
G01X11744Y-20858D01*
G01X11760Y-20863D01*
G01X11780Y-20867D01*
G01X11814Y-20872D01*
G01X11867Y-20878D01*
G01X11923Y-20880D01*
G01X12055Y-20882D01*
G01X12046Y-20400D01*
G01X12110Y-20482D01*
G01X12226Y-20626D01*
G01X12249Y-20649D01*
G01X12266Y-20662D01*
G01X12280Y-20666D01*
G01X12292Y-20663D01*
G01X12303Y-20654D01*
G01X12305Y-20652D01*
G01X12307Y-20650D01*
G01X12308Y-20647D01*
G01X12309Y-20645D01*
G01X12310Y-20642D01*
G01X12311Y-20634D01*
G01X12312Y-20630D01*
G01Y-20626D01*
G01X12311Y-20622D01*
G01X12310Y-20612D01*
G01X12308Y-20600D01*
G01X12303Y-20582D01*
G01X12296Y-20560D01*
G01X12279Y-20517D01*
G01X12244Y-20442D01*
G01X12221Y-20397D01*
G01X12156Y-20279D01*
G01X12116Y-20216D01*
G01X12077Y-20165D01*
G01X12059Y-20143D01*
G01X12041Y-20125D01*
G01X12023Y-20110D01*
G01X12006Y-20097D01*
G01X11988Y-20087D01*
G01X11972Y-20080D01*
G01X11956Y-20076D01*
G37*
G36*
G01X12873Y-20099D02*
G01X12855Y-20100D01*
G01X12838Y-20102D01*
G01X12821Y-20105D01*
G01X12806Y-20108D01*
G01X12790Y-20113D01*
G01X12775Y-20118D01*
G01X12761Y-20125D01*
G01X12747Y-20133D01*
G01X12734Y-20141D01*
G01X12727Y-20146D01*
G01X12716Y-20155D01*
G01X12711Y-20160D01*
G01X12707Y-20165D01*
G01X12703Y-20169D01*
G01X12701Y-20174D01*
G01X12698Y-20178D01*
G01X12697Y-20182D01*
G01X12696Y-20186D01*
G01Y-20190D01*
G01Y-20195D01*
G01X12697Y-20199D01*
G01X12699Y-20203D01*
G01X12702Y-20207D01*
G01X12705Y-20211D01*
G01X12709Y-20215D01*
G01X12713Y-20218D01*
G01X12719Y-20222D01*
G01X12724Y-20226D01*
G01X12731Y-20230D01*
G01X12746Y-20237D01*
G01X12764Y-20244D01*
G01X12797Y-20255D01*
G01X12863Y-20273D01*
G01X12890Y-20281D01*
G01X12917Y-20292D01*
G01X12944Y-20303D01*
G01X12984Y-20324D01*
G01X13024Y-20347D01*
G01X13062Y-20373D01*
G01X13098Y-20402D01*
G01X13132Y-20433D01*
G01X13163Y-20466D01*
G01X13192Y-20501D01*
G01X13210Y-20526D01*
G01X13226Y-20550D01*
G01X13242Y-20578D01*
G01X13254Y-20599D01*
G01X13257Y-20608D01*
G01X13260Y-20616D01*
G01X13261Y-20623D01*
G01Y-20630D01*
G01X13259Y-20635D01*
G01X13256Y-20642D01*
G01X13251Y-20647D01*
G01X13245Y-20653D01*
G01X13237Y-20659D01*
G01X13204Y-20680D01*
G01X13188Y-20689D01*
G01X13169Y-20697D01*
G01X13148Y-20705D01*
G01X13125Y-20711D01*
G01X13075Y-20719D01*
G01X13022Y-20724D01*
G01X12969Y-20725D01*
G01X12918Y-20721D01*
G01X12895Y-20717D01*
G01X12873Y-20712D01*
G01X12854Y-20706D01*
G01X12837Y-20698D01*
G01X12810Y-20688D01*
G01X12787Y-20686D01*
G01X12768Y-20693D01*
G01X12748Y-20711D01*
G01X12740Y-20722D01*
G01X12735Y-20732D01*
G01X12734Y-20742D01*
G01X12736Y-20752D01*
G01X12742Y-20762D01*
G01X12753Y-20773D01*
G01X12769Y-20784D01*
G01X12788Y-20798D01*
G01X12812Y-20811D01*
G01X12836Y-20823D01*
G01X12862Y-20834D01*
G01X12887Y-20842D01*
G01X12913Y-20849D01*
G01X12940Y-20854D01*
G01X12967Y-20858D01*
G01X12995Y-20860D01*
G01X13022Y-20861D01*
G01X13050Y-20859D01*
G01X13077Y-20856D01*
G01X13104Y-20851D01*
G01X13132Y-20845D01*
G01X13158Y-20837D01*
G01X13185Y-20826D01*
G01X13211Y-20815D01*
G01X13330Y-20756D01*
G01X13375Y-20861D01*
G01X13466Y-21071D01*
G01X13512Y-21176D01*
G01X13324Y-21091D01*
G01X13197Y-21038D01*
G01X13125Y-21013D01*
G01X13063Y-20997D01*
G01X13036Y-20992D01*
G01X13010Y-20989D01*
G01X12987Y-20988D01*
G01X12965Y-20989D01*
G01X12945Y-20992D01*
G01X12928Y-20997D01*
G01X12911Y-21004D01*
G01X12897Y-21013D01*
G01X12883Y-21024D01*
G01X12865Y-21046D01*
G01X12852Y-21072D01*
G01X12847Y-21097D01*
G01X12850Y-21118D01*
G01X12852Y-21123D01*
G01X12858Y-21144D01*
G01X12870Y-21197D01*
G01X12885Y-21285D01*
G01X12889Y-21317D01*
G01X12891Y-21346D01*
G01Y-21371D01*
G01X12888Y-21392D01*
G01X12883Y-21412D01*
G01X12875Y-21429D01*
G01X12865Y-21446D01*
G01X12851Y-21462D01*
G01X12832Y-21486D01*
G01X12819Y-21513D01*
G01X12814Y-21539D01*
G01X12816Y-21561D01*
G01X12833Y-21580D01*
G01X12861Y-21594D01*
G01X12898Y-21602D01*
G01X12939Y-21605D01*
G01X12979Y-21602D01*
G01X13016Y-21594D01*
G01X13044Y-21580D01*
G01X13061Y-21561D01*
G01X13065Y-21542D01*
G01X13064Y-21520D01*
G01X13058Y-21500D01*
G01X13048Y-21483D01*
G01X13045Y-21479D01*
G01X13042Y-21473D01*
G01X13039Y-21466D01*
G01X13033Y-21448D01*
G01X13027Y-21427D01*
G01X13019Y-21388D01*
G01X13012Y-21345D01*
G01X13008Y-21299D01*
G01X13004Y-21218D01*
G01X13005Y-21192D01*
G01X13009Y-21173D01*
G01X13016Y-21161D01*
G01X13028Y-21155D01*
G01X13043Y-21152D01*
G01X13063Y-21151D01*
G01X13071D01*
G01X13093Y-21155D01*
G01X13138Y-21165D01*
G01X13217Y-21189D01*
G01X13355Y-21237D01*
G01X13446Y-21269D01*
G01X13526Y-21294D01*
G01X13586Y-21308D01*
G01X13607Y-21310D01*
G01X13619Y-21309D01*
G01X13627Y-21306D01*
G01X13633Y-21303D01*
G01X13639Y-21299D01*
G01X13641Y-21297D01*
G01X13644Y-21294D01*
G01X13647Y-21292D01*
G01X13649Y-21289D01*
G01X13651Y-21286D01*
G01X13654Y-21284D01*
G01X13658Y-21277D01*
G01X13661Y-21270D01*
G01X13664Y-21262D01*
G01X13667Y-21254D01*
G01X13669Y-21246D01*
G01X13671Y-21236D01*
G01X13672Y-21226D01*
G01X13673Y-21209D01*
G01Y-21191D01*
G01X13671Y-21164D01*
G01X13668Y-21134D01*
G01X13661Y-21093D01*
G01X13643Y-21016D01*
G01X13606Y-20888D01*
G01X13521Y-20612D01*
G01X13633Y-20526D01*
G01X13645Y-20517D01*
G01X13688Y-20489D01*
G01X13735Y-20461D01*
G01X13802Y-20428D01*
G01X13850Y-20407D01*
G01X13879Y-20397D01*
G01X13952Y-20374D01*
G01X13978Y-20369D01*
G01X13999Y-20367D01*
G01X14016Y-20369D01*
G01X14030Y-20375D01*
G01X14044Y-20384D01*
G01X14059Y-20398D01*
G01X14074Y-20411D01*
G01X14080Y-20416D01*
G01X14087Y-20420D01*
G01X14093Y-20424D01*
G01X14099Y-20426D01*
G01X14106Y-20428D01*
G01X14112D01*
G01X14119D01*
G01X14127Y-20426D01*
G01X14136Y-20424D01*
G01X14145Y-20421D01*
G01X14155Y-20417D01*
G01X14194Y-20399D01*
G01X14212Y-20389D01*
G01X14230Y-20376D01*
G01X14248Y-20362D01*
G01X14265Y-20347D01*
G01X14281Y-20332D01*
G01X14295Y-20316D01*
G01X14306Y-20301D01*
G01X14314Y-20285D01*
G01X14323Y-20266D01*
G01X14328Y-20248D01*
G01X14331Y-20233D01*
G01X14330Y-20218D01*
G01X14326Y-20204D01*
G01X14318Y-20189D01*
G01X14306Y-20174D01*
G01X14291Y-20156D01*
G01X14273Y-20139D01*
G01X14265Y-20132D01*
G01X14256Y-20126D01*
G01X14247Y-20121D01*
G01X14238Y-20116D01*
G01X14228Y-20113D01*
G01X14216Y-20110D01*
G01X14204Y-20108D01*
G01X14191Y-20107D01*
G01X14177Y-20106D01*
G01X14143Y-20107D01*
G01X14077Y-20112D01*
G01X14058Y-20114D01*
G01X14004Y-20123D01*
G01X13947Y-20136D01*
G01X13890Y-20153D01*
G01X13832Y-20174D01*
G01X13776Y-20197D01*
G01X13722Y-20223D01*
G01X13670Y-20251D01*
G01X13622Y-20281D01*
G01X13578Y-20313D01*
G01X13552Y-20335D01*
G01X13529Y-20357D01*
G01X13444Y-20442D01*
G01X13315Y-20313D01*
G01X13296Y-20295D01*
G01X13259Y-20262D01*
G01X13221Y-20231D01*
G01X13182Y-20204D01*
G01X13142Y-20179D01*
G01X13102Y-20157D01*
G01X13062Y-20139D01*
G01X13023Y-20124D01*
G01X12984Y-20113D01*
G01X12945Y-20105D01*
G01X12908Y-20100D01*
G37*
G04 Image End*
G04 Image End*

G04 Text Start*
G54D10*
G01X5875Y-7275D02*
G01X5827Y-7371D01*
G01X5730Y-7465D01*
G01X5636Y-7513D01*
G01X5443D01*
G01X5347Y-7465D01*
G01X5253Y-7371D01*
G01X5204Y-7275D01*
G01X5156Y-7130D01*
G01Y-6891D01*
G01X5204Y-6746D01*
G01X5253Y-6652D01*
G01X5347Y-6556D01*
G01X5443Y-6507D01*
G01X5636D01*
G01X5730Y-6556D01*
G01X5827Y-6652D01*
G01X5875Y-6746D01*
G01X6259Y-7323D02*
G01X6353Y-7371D01*
G01X6497Y-7513D01*
G01Y-6507D01*
G01X5875Y-14895D02*
G01X5827Y-14991D01*
G01X5730Y-15085D01*
G01X5636Y-15133D01*
G01X5443D01*
G01X5347Y-15085D01*
G01X5253Y-14991D01*
G01X5204Y-14895D01*
G01X5156Y-14750D01*
G01Y-14511D01*
G01X5204Y-14366D01*
G01X5253Y-14272D01*
G01X5347Y-14176D01*
G01X5443Y-14127D01*
G01X5636D01*
G01X5730Y-14176D01*
G01X5827Y-14272D01*
G01X5875Y-14366D01*
G01X6353Y-15133D02*
G01X6881Y-15133D01*
G01X6594Y-14750D01*
G01X6736D01*
G01X6833Y-14702D01*
G01X6881Y-14656D01*
G01X6929Y-14511D01*
G01Y-14414D01*
G01X6881Y-14272D01*
G01X6784Y-14176D01*
G01X6640Y-14127D01*
G01X6497D01*
G01X6353Y-14176D01*
G01X6304Y-14224D01*
G01X6259Y-14318D01*
G01X6172Y-18181D02*
G01X6172Y-17175D01*
G01X6172Y-18181D02*
G01X6604Y-18181D01*
G01X6746Y-18133D01*
G01X6795Y-18085D01*
G01X6843Y-17991D01*
G01Y-17894D01*
G01X6795Y-17798D01*
G01X6746Y-17750D01*
G01X6604Y-17704D01*
G01X6172D01*
G01X6507Y-17704D02*
G01X6843Y-17175D01*
G01X7226Y-17991D02*
G01X7320Y-18039D01*
G01X7465Y-18181D01*
G01Y-17175D01*
G01X6172Y-20340D02*
G01X6172Y-19334D01*
G01X6172Y-20340D02*
G01X6604Y-20340D01*
G01X6746Y-20292D01*
G01X6795Y-20244D01*
G01X6843Y-20150D01*
G01Y-20053D01*
G01X6795Y-19957D01*
G01X6746Y-19909D01*
G01X6604Y-19863D01*
G01X6172D01*
G01X6507Y-19863D02*
G01X6843Y-19334D01*
G01X7272Y-20102D02*
G01X7272Y-20150D01*
G01X7320Y-20244D01*
G01X7369Y-20292D01*
G01X7465Y-20340D01*
G01X7656D01*
G01X7752Y-20292D01*
G01X7800Y-20244D01*
G01X7849Y-20150D01*
G01Y-20053D01*
G01X7800Y-19957D01*
G01X7704Y-19815D01*
G01X7226Y-19334D01*
G01X7897D01*
G01X6172Y-22499D02*
G01X6172Y-21493D01*
G01X6172Y-22499D02*
G01X6604Y-22499D01*
G01X6746Y-22451D01*
G01X6795Y-22403D01*
G01X6843Y-22309D01*
G01Y-22212D01*
G01X6795Y-22116D01*
G01X6746Y-22068D01*
G01X6604Y-22022D01*
G01X6172D01*
G01X6507Y-22022D02*
G01X6843Y-21493D01*
G01X7320Y-22499D02*
G01X7849Y-22499D01*
G01X7562Y-22116D01*
G01X7704D01*
G01X7800Y-22068D01*
G01X7849Y-22022D01*
G01X7897Y-21877D01*
G01Y-21780D01*
G01X7849Y-21638D01*
G01X7752Y-21542D01*
G01X7607Y-21493D01*
G01X7465D01*
G01X7320Y-21542D01*
G01X7272Y-21590D01*
G01X7226Y-21684D01*
G01X5029Y-3957D02*
G01X5029Y-2951D01*
G01X5029Y-3957D02*
G01X5461Y-3957D01*
G01X5603Y-3909D01*
G01X5652Y-3861D01*
G01X5700Y-3767D01*
G01Y-3670D01*
G01X5652Y-3574D01*
G01X5603Y-3526D01*
G01X5461Y-3480D01*
G01X5029D01*
G01X5364Y-3480D02*
G01X5700Y-2951D01*
G01X6561Y-3957D02*
G01X6083Y-3287D01*
G01X6800D01*
G01X6561Y-3957D02*
G01X6561Y-2951D01*
G01X5156Y-10434D02*
G01X5156Y-9428D01*
G01X5156Y-10434D02*
G01X5588Y-10434D01*
G01X5730Y-10386D01*
G01X5779Y-10338D01*
G01X5827Y-10244D01*
G01Y-10147D01*
G01X5779Y-10051D01*
G01X5730Y-10003D01*
G01X5588Y-9957D01*
G01X5156D01*
G01X5491Y-9957D02*
G01X5827Y-9428D01*
G01X6784Y-10434D02*
G01X6304Y-10434D01*
G01X6256Y-10003D01*
G01X6304Y-10051D01*
G01X6449Y-10099D01*
G01X6591D01*
G01X6736Y-10051D01*
G01X6833Y-9957D01*
G01X6881Y-9812D01*
G01Y-9715D01*
G01X6833Y-9573D01*
G01X6736Y-9477D01*
G01X6591Y-9428D01*
G01X6449D01*
G01X6304Y-9477D01*
G01X6256Y-9525D01*
G01X6210Y-9619D01*
G01X19507Y-18468D02*
G01X19507Y-18004D01*
G01X19538Y-17912D01*
G01X19601Y-17849D01*
G01X19693Y-17818D01*
G01X19756D01*
G01X19848Y-17849D01*
G01X19909Y-17912D01*
G01X19942Y-18004D01*
G01Y-18468D01*
G01X20676Y-18468D02*
G01X20366Y-17818D01*
G01X20244Y-18468D02*
G01X20676Y-18468D01*
G01X25389Y-7811D02*
G01X25389Y-7161D01*
G01X25389Y-7811D02*
G01X25668Y-7811D01*
G01X25760Y-7781D01*
G01X25790Y-7750D01*
G01X25823Y-7687D01*
G01Y-7626D01*
G01X25790Y-7565D01*
G01X25760Y-7534D01*
G01X25668Y-7501D01*
G01X25389D01*
G01X25605Y-7501D02*
G01X25823Y-7161D01*
G01X26557Y-7811D02*
G01X26247Y-7161D01*
G01X26125Y-7811D02*
G01X26557Y-7811D01*
G01X25393Y-4793D02*
G01X25393Y-4143D01*
G01X25393Y-4793D02*
G01X25672Y-4793D01*
G01X25764Y-4763D01*
G01X25794Y-4732D01*
G01X25827Y-4669D01*
G01Y-4608D01*
G01X25794Y-4547D01*
G01X25764Y-4516D01*
G01X25672Y-4483D01*
G01X25393D01*
G01X25609Y-4483D02*
G01X25827Y-4143D01*
G01X26282Y-4793D02*
G01X26190Y-4763D01*
G01X26160Y-4702D01*
G01Y-4638D01*
G01X26190Y-4577D01*
G01X26251Y-4547D01*
G01X26376Y-4516D01*
G01X26470Y-4483D01*
G01X26531Y-4422D01*
G01X26561Y-4361D01*
G01Y-4267D01*
G01X26531Y-4206D01*
G01X26500Y-4173D01*
G01X26406Y-4143D01*
G01X26282D01*
G01X26190Y-4173D01*
G01X26160Y-4206D01*
G01X26130Y-4267D01*
G01Y-4361D01*
G01X26160Y-4422D01*
G01X26221Y-4483D01*
G01X26315Y-4516D01*
G01X26437Y-4547D01*
G01X26500Y-4577D01*
G01X26531Y-4638D01*
G01Y-4702D01*
G01X26500Y-4763D01*
G01X26406Y-4793D01*
G01X26282D01*
G01X16130Y-9451D02*
G01X16130Y-8801D01*
G01X16130Y-9451D02*
G01X16409Y-9451D01*
G01X16501Y-9421D01*
G01X16531Y-9390D01*
G01X16564Y-9327D01*
G01Y-9266D01*
G01X16531Y-9205D01*
G01X16501Y-9174D01*
G01X16409Y-9141D01*
G01X16130D01*
G01X16346Y-9141D02*
G01X16564Y-8801D01*
G01X17268Y-9235D02*
G01X17237Y-9141D01*
G01X17174Y-9080D01*
G01X17082Y-9050D01*
G01X17052D01*
G01X16958Y-9080D01*
G01X16897Y-9141D01*
G01X16866Y-9235D01*
G01Y-9266D01*
G01X16897Y-9360D01*
G01X16958Y-9421D01*
G01X17052Y-9451D01*
G01X17082D01*
G01X17174Y-9421D01*
G01X17237Y-9360D01*
G01X17268Y-9235D01*
G01Y-9080D01*
G01X17237Y-8926D01*
G01X17174Y-8832D01*
G01X17082Y-8801D01*
G01X17019D01*
G01X16927Y-8832D01*
G01X16897Y-8895D01*
G01X16153Y-11102D02*
G01X16153Y-10452D01*
G01X16153Y-11102D02*
G01X16432Y-11102D01*
G01X16523Y-11072D01*
G01X16554Y-11041D01*
G01X16587Y-10978D01*
G01Y-10917D01*
G01X16554Y-10856D01*
G01X16523Y-10825D01*
G01X16432Y-10792D01*
G01X16153D01*
G01X16368Y-10792D02*
G01X16587Y-10452D01*
G01X16889Y-10978D02*
G01X16950Y-11011D01*
G01X17042Y-11102D01*
G01Y-10452D01*
G01X17529Y-11102D02*
G01X17435Y-11072D01*
G01X17374Y-10978D01*
G01X17344Y-10825D01*
G01Y-10731D01*
G01X17374Y-10577D01*
G01X17435Y-10483D01*
G01X17529Y-10452D01*
G01X17590D01*
G01X17684Y-10483D01*
G01X17745Y-10577D01*
G01X17776Y-10731D01*
G01Y-10825D01*
G01X17745Y-10978D01*
G01X17684Y-11072D01*
G01X17590Y-11102D01*
G01X17529D01*
G01X16178Y-7800D02*
G01X16178Y-7150D01*
G01X16178Y-7800D02*
G01X16457Y-7800D01*
G01X16549Y-7770D01*
G01X16579Y-7739D01*
G01X16612Y-7676D01*
G01Y-7615D01*
G01X16579Y-7554D01*
G01X16549Y-7523D01*
G01X16457Y-7490D01*
G01X16178D01*
G01X16394Y-7490D02*
G01X16612Y-7150D01*
G01X16915Y-7676D02*
G01X16976Y-7709D01*
G01X17067Y-7800D01*
G01Y-7150D01*
G01X17369Y-7676D02*
G01X17430Y-7709D01*
G01X17522Y-7800D01*
G01Y-7150D01*
G01X9980Y-9728D02*
G01X10630Y-9728D01*
G01X9980Y-9728D02*
G01X9980Y-10008D01*
G01X10010Y-10099D01*
G01X10041Y-10130D01*
G01X10104Y-10163D01*
G01X10165D01*
G01X10226Y-10130D01*
G01X10257Y-10099D01*
G01X10290Y-10008D01*
G01Y-9728D01*
G01X10290Y-9944D02*
G01X10630Y-10163D01*
G01X10104Y-10465D02*
G01X10071Y-10526D01*
G01X9980Y-10617D01*
G01X10630D01*
G01X10135Y-10950D02*
G01X10104Y-10950D01*
G01X10041Y-10980D01*
G01X10010Y-11011D01*
G01X9980Y-11072D01*
G01Y-11196D01*
G01X10010Y-11260D01*
G01X10041Y-11290D01*
G01X10104Y-11321D01*
G01X10165D01*
G01X10226Y-11290D01*
G01X10320Y-11227D01*
G01X10630Y-10919D01*
G01Y-11351D01*
G01X11758Y-9728D02*
G01X12408Y-9728D01*
G01X11758Y-9728D02*
G01X11758Y-10008D01*
G01X11788Y-10099D01*
G01X11819Y-10130D01*
G01X11882Y-10163D01*
G01X11943D01*
G01X12004Y-10130D01*
G01X12035Y-10099D01*
G01X12068Y-10008D01*
G01Y-9728D01*
G01X12068Y-9944D02*
G01X12408Y-10163D01*
G01X11882Y-10465D02*
G01X11849Y-10526D01*
G01X11758Y-10617D01*
G01X12408D01*
G01X11758Y-10980D02*
G01X11758Y-11321D01*
G01X12004Y-11135D01*
G01Y-11227D01*
G01X12035Y-11290D01*
G01X12068Y-11321D01*
G01X12159Y-11351D01*
G01X12222D01*
G01X12314Y-11321D01*
G01X12377Y-11260D01*
G01X12408Y-11166D01*
G01Y-11072D01*
G01X12377Y-10980D01*
G01X12344Y-10950D01*
G01X12283Y-10919D01*
G01X18863Y-14278D02*
G01X18863Y-13813D01*
G01X18893Y-13722D01*
G01X18957Y-13658D01*
G01X19048Y-13628D01*
G01X19112D01*
G01X19203Y-13658D01*
G01X19264Y-13722D01*
G01X19297Y-13813D01*
G01Y-14278D01*
G01X19752Y-14278D02*
G01X19660Y-14248D01*
G01X19630Y-14187D01*
G01Y-14123D01*
G01X19660Y-14062D01*
G01X19721Y-14032D01*
G01X19846Y-14001D01*
G01X19940Y-13968D01*
G01X20001Y-13907D01*
G01X20031Y-13846D01*
G01Y-13752D01*
G01X20001Y-13691D01*
G01X19970Y-13658D01*
G01X19876Y-13628D01*
G01X19752D01*
G01X19660Y-13658D01*
G01X19630Y-13691D01*
G01X19599Y-13752D01*
G01Y-13846D01*
G01X19630Y-13907D01*
G01X19691Y-13968D01*
G01X19785Y-14001D01*
G01X19907Y-14032D01*
G01X19970Y-14062D01*
G01X20001Y-14123D01*
G01Y-14187D01*
G01X19970Y-14248D01*
G01X19876Y-14278D01*
G01X19752D01*
G01X7899Y-7206D02*
G01X7963Y-7236D01*
G01X8024Y-7300D01*
G01X8054Y-7361D01*
G01Y-7485D01*
G01X8024Y-7546D01*
G01X7963Y-7610D01*
G01X7899Y-7640D01*
G01X7808Y-7671D01*
G01X7653D01*
G01X7559Y-7640D01*
G01X7498Y-7610D01*
G01X7435Y-7546D01*
G01X7404Y-7485D01*
G01Y-7361D01*
G01X7435Y-7300D01*
G01X7498Y-7236D01*
G01X7559Y-7206D01*
G01X7963Y-6533D02*
G01X8024Y-6563D01*
G01X8054Y-6657D01*
G01Y-6718D01*
G01X8024Y-6812D01*
G01X7930Y-6873D01*
G01X7777Y-6904D01*
G01X7623D01*
G01X7498Y-6873D01*
G01X7435Y-6812D01*
G01X7404Y-6718D01*
G01Y-6688D01*
G01X7435Y-6596D01*
G01X7498Y-6533D01*
G01X7590Y-6502D01*
G01X7623D01*
G01X7714Y-6533D01*
G01X7777Y-6596D01*
G01X7808Y-6688D01*
G01Y-6718D01*
G01X7777Y-6812D01*
G01X7714Y-6873D01*
G01X7623Y-6904D01*
G04 Text End*

G04 PolygonModel Start*
G54D11*
G01X3664Y-7613D02*
G01X4464Y-7613D01*
G01X3354Y-6503D02*
G01X3354Y-7303D01*
G01X4774Y-6503D02*
G01X4774Y-7303D01*
G01X3349Y-5927D02*
G01X3349Y-5127D01*
G01X3658Y-4818D02*
G01X4458Y-4818D01*
G01X4768Y-5927D02*
G01X4768Y-5127D01*
G01X3658Y-4817D02*
G03X3349Y-5127I0J-310D01*
G01X4768Y-5127D02*
G03X4458Y-4817I-310J0D01*
G01X3354Y-7303D02*
G03X3664Y-7613I310J0D01*
G01X4464Y-7613D02*
G03X4774Y-7303I0J310D01*
G01X3664Y-15233D02*
G01X4464Y-15233D01*
G01X3354Y-14123D02*
G01X3354Y-14923D01*
G01X4774Y-14123D02*
G01X4774Y-14923D01*
G01X3349Y-13547D02*
G01X3349Y-12747D01*
G01X3658Y-12438D02*
G01X4458Y-12438D01*
G01X4768Y-13547D02*
G01X4768Y-12747D01*
G01X3658Y-12437D02*
G03X3349Y-12747I0J-310D01*
G01X4768Y-12747D02*
G03X4458Y-12437I-310J0D01*
G01X3354Y-14923D02*
G03X3664Y-15233I310J0D01*
G01X4464Y-15233D02*
G03X4774Y-14923I0J310D01*
G54D10*
G01X4019Y-18314D02*
G01X3060Y-18314D01*
G01X3060Y-18314D02*
G01X3060Y-16992D01*
G01X3060Y-16992D02*
G01X4019Y-16992D01*
G01X4871Y-18314D02*
G01X5830Y-18314D01*
G01X5830Y-18314D02*
G01X5830Y-16992D01*
G01X5830Y-16992D02*
G01X4871Y-16992D01*
G01X4019Y-20473D02*
G01X3060Y-20473D01*
G01X3060Y-20473D02*
G01X3060Y-19151D01*
G01X3060Y-19151D02*
G01X4019Y-19151D01*
G01X4871Y-20473D02*
G01X5830Y-20473D01*
G01X5830Y-20473D02*
G01X5830Y-19151D01*
G01X5830Y-19151D02*
G01X4871Y-19151D01*
G01X4019Y-22632D02*
G01X3060Y-22632D01*
G01X3060Y-22632D02*
G01X3060Y-21310D01*
G01X3060Y-21310D02*
G01X4019Y-21310D01*
G01X4871Y-22632D02*
G01X5830Y-22632D01*
G01X5830Y-22632D02*
G01X5830Y-21310D01*
G01X5830Y-21310D02*
G01X4871Y-21310D01*
G01X3349Y-2241D02*
G01X3349Y-1282D01*
G01X3349Y-1282D02*
G01X4670Y-1282D01*
G01X4670Y-1282D02*
G01X4670Y-2241D01*
G01X3349Y-3093D02*
G01X3349Y-4052D01*
G01X3349Y-4052D02*
G01X4670Y-4052D01*
G01X4670Y-4052D02*
G01X4670Y-3093D01*
G01X4670Y-10713D02*
G01X4670Y-11672D01*
G01X4670Y-11672D02*
G01X3349Y-11672D01*
G01X3349Y-11672D02*
G01X3349Y-10713D01*
G01X4670Y-9861D02*
G01X4670Y-8902D01*
G01X4670Y-8902D02*
G01X3349Y-8902D01*
G01X3349Y-8902D02*
G01X3349Y-9861D01*
G01X21016Y-17402D02*
G01X21016Y-20444D01*
G01X21016Y-20444D02*
G01X26069Y-20444D01*
G01X26069Y-20444D02*
G01X26069Y-17402D01*
G01X26069Y-17402D02*
G01X21016Y-17402D01*
G01X24048Y-6832D02*
G01X25007Y-6832D01*
G01X25007Y-6832D02*
G01X25007Y-8154D01*
G01X25007Y-8154D02*
G01X24048Y-8154D01*
G01X23196Y-6832D02*
G01X22237Y-6832D01*
G01X22237Y-6832D02*
G01X22237Y-8154D01*
G01X22237Y-8154D02*
G01X23196Y-8154D01*
G01X23196Y-5106D02*
G01X22237Y-5106D01*
G01X22237Y-5106D02*
G01X22237Y-3784D01*
G01X22237Y-3784D02*
G01X23196Y-3784D01*
G01X24048Y-5106D02*
G01X25007Y-5106D01*
G01X25007Y-5106D02*
G01X25007Y-3784D01*
G01X25007Y-3784D02*
G01X24048Y-3784D01*
G01X14124Y-9678D02*
G01X13165Y-9678D01*
G01X13165Y-9678D02*
G01X13165Y-8356D01*
G01X13165Y-8356D02*
G01X14124Y-8356D01*
G01X14976Y-9678D02*
G01X15935Y-9678D01*
G01X15935Y-9678D02*
G01X15935Y-8356D01*
G01X15935Y-8356D02*
G01X14976Y-8356D01*
G01X14124Y-11329D02*
G01X13165Y-11329D01*
G01X13165Y-11329D02*
G01X13165Y-10007D01*
G01X13165Y-10007D02*
G01X14124Y-10007D01*
G01X14976Y-11329D02*
G01X15935Y-11329D01*
G01X15935Y-11329D02*
G01X15935Y-10007D01*
G01X15935Y-10007D02*
G01X14976Y-10007D01*
G01X14124Y-8027D02*
G01X13165Y-8027D01*
G01X13165Y-8027D02*
G01X13165Y-6705D01*
G01X13165Y-6705D02*
G01X14124Y-6705D01*
G01X14976Y-8027D02*
G01X15935Y-8027D01*
G01X15935Y-8027D02*
G01X15935Y-6705D01*
G01X15935Y-6705D02*
G01X14976Y-6705D01*
G01X16870Y-13390D02*
G01X16870Y-15042D01*
G01X18523Y-13390D02*
G01X18523Y-15042D01*
G54D11*
G01X7347Y-6089D02*
G01X8147Y-6089D01*
G01X7037Y-4979D02*
G01X7037Y-5779D01*
G01X8457Y-4979D02*
G01X8457Y-5779D01*
G01X7032Y-4403D02*
G01X7032Y-3603D01*
G01X7341Y-3294D02*
G01X8141Y-3294D01*
G01X8451Y-4403D02*
G01X8451Y-3603D01*
G01X7341Y-3293D02*
G03X7032Y-3603I0J-310D01*
G01X8451Y-3603D02*
G03X8141Y-3293I-310J0D01*
G01X7037Y-5779D02*
G03X7347Y-6089I310J0D01*
G01X8147Y-6089D02*
G03X8457Y-5779I0J310D01*
G54D10*
G01X11075Y-8517D02*
G01X11075Y-9476D01*
G01X11075Y-9476D02*
G01X9753Y-9476D01*
G01X9753Y-9476D02*
G01X9753Y-8517D01*
G01X11075Y-7664D02*
G01X11075Y-6705D01*
G01X11075Y-6705D02*
G01X9753Y-6705D01*
G01X9753Y-6705D02*
G01X9753Y-7664D01*
G01X12726Y-8517D02*
G01X12726Y-9476D01*
G01X12726Y-9476D02*
G01X11404Y-9476D01*
G01X11404Y-9476D02*
G01X11404Y-8517D01*
G01X12726Y-7664D02*
G01X12726Y-6705D01*
G01X12726Y-6705D02*
G01X11404Y-6705D01*
G01X11404Y-6705D02*
G01X11404Y-7664D01*
G04 PolygonModel End*

G04 Circle Start*
G54D12*
G01X21487Y-18154D02*
G03X21788Y-18154I150J0D01*
G03X21487I-150J0D01*
G01X20741Y-16151D02*
G03X21041Y-16151I150J0D01*
G03X20741I-150J0D01*
G54D13*
G01X16894Y-13203D02*
G03X16970Y-13203I38J0D01*
G03X16894I-38J0D01*
G04 Circle End*

M02*
