G04 Layer: TopSolderMaskLayer*
G04 EasyEDA Pro v2.1.32.5533625a.f972c4, 2023-12-06 19:29:04*
G04 Gerber Generator version 0.3*
G04 Scale: 100 percent, Rotated: No, Reflected: No*
G04 Dimensions in millimeters*
G04 Leading zeros omitted, absolute positions, 3 integers and 3 decimals*
%FSLAX33Y33*%
%MOMM*%
%AMRoundRect*1,1,$1,$2,$3*1,1,$1,$4,$5*1,1,$1,0-$2,0-$3*1,1,$1,0-$4,0-$5*20,1,$1,$2,$3,$4,$5,0*20,1,$1,$4,$5,0-$2,0-$3,0*20,1,$1,0-$2,0-$3,0-$4,0-$5,0*20,1,$1,0-$4,0-$5,$2,$3,0*4,1,4,$2,$3,$4,$5,0-$2,0-$3,0-$4,0-$5,$2,$3,0*%
%ADD10RoundRect,0.09X0.556X0.356X0.556X-0.356*%
%ADD11RoundRect,0.089X0.606X0.306X0.606X-0.306*%
%ADD12RoundRect,0.09X-0.631X0.356X0.631X0.356*%
%ADD13RoundRect,0.092X0.455X0.505X0.455X-0.505*%
%ADD14RoundRect,0.09X0.655X0.415X0.655X-0.415*%
%ADD15O,2.402X0.702*%
%ADD16RoundRect,0.091X-0.405X0.455X0.405X0.455*%
%ADD17RoundRect,0.091X-0.408X0.437X0.408X0.437*%
%ADD18RoundRect,0.096X-0.853X0.853X0.853X0.853*%
%ADD19C,1.802*%
%ADD20C,1.902*%
%ADD21RoundRect,0.081X-0.615X-0.16X-0.615X0.16*%
%ADD22O,2.402X1.202*%
%ADD23O,2.302X1.202*%
G75*


G04 Pad Start*
G54D10*
G01X2297Y-2695D03*
G01X2297Y-6195D03*
G54D11*
G01X497Y-2245D03*
G01X497Y-6645D03*
G54D10*
G01X2297Y-10442D03*
G01X2297Y-13942D03*
G54D11*
G01X497Y-9992D03*
G01X497Y-14392D03*
G54D12*
G01X24241Y-19746D03*
G01X24241Y-17846D03*
G01X22241Y-18796D03*
G54D13*
G01X25869Y-25400D03*
G01X24169Y-25400D03*
G54D14*
G01X4471Y-24319D03*
G01X1371Y-25719D03*
G01X1371Y-24319D03*
G01X4471Y-25719D03*
G54D15*
G01X7700Y-4699D03*
G01X7700Y-5969D03*
G01X7700Y-7239D03*
G01X7700Y-8509D03*
G01X7700Y-9779D03*
G01X7700Y-11049D03*
G01X7700Y-12319D03*
G01X7700Y-13589D03*
G01X7700Y-14859D03*
G01X7700Y-16129D03*
G01X7700Y-17399D03*
G01X7700Y-18669D03*
G01X7700Y-19939D03*
G01X7700Y-21209D03*
G01X17700Y-21209D03*
G01X17700Y-19939D03*
G01X17700Y-18669D03*
G01X17700Y-17399D03*
G01X17700Y-16129D03*
G01X17700Y-14859D03*
G01X17700Y-13589D03*
G01X17700Y-12319D03*
G01X17700Y-11049D03*
G01X17700Y-9779D03*
G01X17700Y-8509D03*
G01X17700Y-7239D03*
G01X17700Y-5969D03*
G01X17700Y-4699D03*
G54D16*
G01X24299Y-15240D03*
G01X25699Y-15240D03*
G01X24299Y-13208D03*
G01X25699Y-13208D03*
G54D17*
G01X24409Y-23749D03*
G01X25916Y-23749D03*
G54D18*
G01X9776Y-1232D03*
G54D19*
G01X12316Y-1232D03*
G01X14856Y-1232D03*
G01X17396Y-1232D03*
G54D20*
G01X7366Y-24003D03*
G01X9906Y-24003D03*
G01X7366Y-26543D03*
G01X9906Y-26543D03*
G01X12446Y-26543D03*
G01X12446Y-24003D03*
G01X20066Y-24003D03*
G01X20066Y-26543D03*
G01X17526Y-24003D03*
G01X17526Y-26543D03*
G01X14986Y-24003D03*
G01X14986Y-26543D03*
G54D21*
G01X20816Y-9573D03*
G01X20816Y-9273D03*
G01X20816Y-8773D03*
G01X20816Y-8473D03*
G01X20816Y-7973D03*
G01X20816Y-7473D03*
G01X20816Y-6973D03*
G01X20816Y-6473D03*
G01X20816Y-5973D03*
G01X20816Y-5473D03*
G01X20816Y-4973D03*
G01X20816Y-4473D03*
G01X20816Y-3973D03*
G01X20816Y-3673D03*
G01X20816Y-3173D03*
G01X20816Y-2873D03*
G54D22*
G01X25920Y-10833D03*
G01X25920Y-1613D03*
G54D23*
G01X21421Y-1613D03*
G01X21421Y-10833D03*
G04 Pad End*

M02*
