G04 Layer: TopPasteMaskLayer*
G04 EasyEDA Pro v2.1.32.5533625a.f972c4, 2023-12-06 19:29:04*
G04 Gerber Generator version 0.3*
G04 Scale: 100 percent, Rotated: No, Reflected: No*
G04 Dimensions in millimeters*
G04 Leading zeros omitted, absolute positions, 3 integers and 3 decimals*
%FSLAX33Y33*%
%MOMM*%
%ADD10R,1.1X0.7*%
%ADD11R,1.2X0.6*%
%ADD12R,1.25X0.7*%
%ADD13R,0.9X1.0*%
%ADD14R,1.3X0.82*%
%ADD15O,2.3X0.6*%
%ADD16R,0.8X0.9*%
G75*


G04 PolygonModel Start*
G36*
G01X23967Y-24199D02*
G01X24767Y-24199D01*
G01X24817Y-24149D01*
G01Y-23921D01*
G01X24447D01*
G01Y-23591D01*
G01X24817D01*
G01Y-23349D01*
G01X24767Y-23299D01*
G01X23967D01*
G01X23917Y-23349D01*
G01Y-24149D01*
G01X23967Y-24199D01*
G37*
G36*
G01X25517Y-24149D02*
G01X25517Y-23921D01*
G01X25897D01*
G01Y-23591D01*
G01X25517D01*
G01Y-23349D01*
G01X25567Y-23299D01*
G01X26357D01*
G01X26407Y-23349D01*
G01Y-24149D01*
G01X26357Y-24199D01*
G01X25567D01*
G01X25517Y-24149D01*
G37*
G04 PolygonModel End*

G04 Pad Start*
G54D10*
G01X2297Y-2695D03*
G01X2297Y-6195D03*
G54D11*
G01X497Y-2245D03*
G01X497Y-6645D03*
G54D10*
G01X2297Y-10442D03*
G01X2297Y-13942D03*
G54D11*
G01X497Y-9992D03*
G01X497Y-14392D03*
G54D12*
G01X24241Y-19746D03*
G01X24241Y-17846D03*
G01X22241Y-18796D03*
G54D13*
G01X25869Y-25400D03*
G01X24169Y-25400D03*
G54D14*
G01X4471Y-24319D03*
G01X1371Y-25719D03*
G01X1371Y-24319D03*
G01X4471Y-25719D03*
G54D15*
G01X7700Y-4699D03*
G01X7700Y-5969D03*
G01X7700Y-7239D03*
G01X7700Y-8509D03*
G01X7700Y-9779D03*
G01X7700Y-11049D03*
G01X7700Y-12319D03*
G01X7700Y-13589D03*
G01X7700Y-14859D03*
G01X7700Y-16129D03*
G01X7700Y-17399D03*
G01X7700Y-18669D03*
G01X7700Y-19939D03*
G01X7700Y-21209D03*
G01X17700Y-21209D03*
G01X17700Y-19939D03*
G01X17700Y-18669D03*
G01X17700Y-17399D03*
G01X17700Y-16129D03*
G01X17700Y-14859D03*
G01X17700Y-13589D03*
G01X17700Y-12319D03*
G01X17700Y-11049D03*
G01X17700Y-9779D03*
G01X17700Y-8509D03*
G01X17700Y-7239D03*
G01X17700Y-5969D03*
G01X17700Y-4699D03*
G54D16*
G01X24299Y-15240D03*
G01X25699Y-15240D03*
G01X24299Y-13208D03*
G01X25699Y-13208D03*
G04 Pad End*

M02*
