G04 Layer: DrillDrawingLayer*
G04 EasyEDA Pro v2.1.32.5533625a.f972c4, 2023-12-06 19:29:04*
G04 Gerber Generator version 0.3*
G04 Scale: 100 percent, Rotated: No, Reflected: No*
G04 Dimensions in millimeters*
G04 Leading zeros omitted, absolute positions, 3 integers and 3 decimals*
%FSLAX33Y33*%
%MOMM*%
%ADD10C,0.254*%
G75*


G04 Image Start*
G36*
G01X25721Y-10633D02*
G01X25721Y-10670D01*
G01X25757D01*
G01X26084D01*
G01Y-10996D01*
G01X25757D01*
G01Y-10670D01*
G01X25721D01*
G01Y-11032D01*
G01X26120D01*
G01Y-10633D01*
G37*
G36*
G01X25721Y-1414D02*
G01X25721Y-1450D01*
G01X25757D01*
G01X26084D01*
G01Y-1776D01*
G01X25757D01*
G01Y-1450D01*
G01X25721D01*
G01Y-1813D01*
G01X26120D01*
G01Y-1414D01*
G37*
G36*
G01X21221Y-1414D02*
G01X21221Y-1450D01*
G01X21257D01*
G01X21584D01*
G01Y-1776D01*
G01X21257D01*
G01Y-1450D01*
G01X21221D01*
G01Y-1813D01*
G01X21620D01*
G01Y-1414D01*
G37*
G36*
G01X21221Y-10633D02*
G01X21221Y-10670D01*
G01X21257D01*
G01X21584D01*
G01Y-10996D01*
G01X21257D01*
G01Y-10670D01*
G01X21221D01*
G01Y-11032D01*
G01X21620D01*
G01Y-10633D01*
G37*
G36*
G01X9776Y-1033D02*
G01X9756Y-1034D01*
G01X9736Y-1037D01*
G01X9717Y-1042D01*
G01X9699Y-1049D01*
G01X9681Y-1057D01*
G01X9665Y-1067D01*
G01X9649Y-1078D01*
G01X9635Y-1091D01*
G01X9623Y-1105D01*
G01X9611Y-1121D01*
G01X9601Y-1137D01*
G01X9593Y-1155D01*
G01X9586Y-1173D01*
G01X9581Y-1192D01*
G01X9578Y-1212D01*
G01X9577Y-1232D01*
G01X9610D01*
G01X9611Y-1215D01*
G01X9614Y-1199D01*
G01X9618Y-1183D01*
G01X9624Y-1167D01*
G01X9630Y-1153D01*
G01X9639Y-1139D01*
G01X9648Y-1127D01*
G01X9659Y-1115D01*
G01X9671Y-1104D01*
G01X9683Y-1094D01*
G01X9697Y-1086D01*
G01X9712Y-1079D01*
G01X9727Y-1073D01*
G01X9743Y-1069D01*
G01X9760Y-1067D01*
G01X9776Y-1066D01*
G01X9793Y-1067D01*
G01X9810Y-1069D01*
G01X9826Y-1073D01*
G01X9841Y-1079D01*
G01X9856Y-1086D01*
G01X9869Y-1094D01*
G01X9882Y-1104D01*
G01X9894Y-1115D01*
G01X9904Y-1127D01*
G01X9914Y-1139D01*
G01X9923Y-1153D01*
G01X9929Y-1167D01*
G01X9935Y-1183D01*
G01X9939Y-1199D01*
G01X9942Y-1215D01*
G01X9943Y-1232D01*
G01X9942Y-1249D01*
G01X9939Y-1265D01*
G01X9935Y-1282D01*
G01X9929Y-1297D01*
G01X9923Y-1311D01*
G01X9914Y-1325D01*
G01X9904Y-1338D01*
G01X9894Y-1350D01*
G01X9882Y-1360D01*
G01X9869Y-1370D01*
G01X9856Y-1378D01*
G01X9841Y-1385D01*
G01X9826Y-1391D01*
G01X9810Y-1395D01*
G01X9793Y-1398D01*
G01X9776Y-1399D01*
G01X9760Y-1398D01*
G01X9743Y-1395D01*
G01X9727Y-1391D01*
G01X9712Y-1385D01*
G01X9697Y-1378D01*
G01X9683Y-1370D01*
G01X9671Y-1360D01*
G01X9659Y-1350D01*
G01X9648Y-1338D01*
G01X9639Y-1325D01*
G01X9630Y-1311D01*
G01X9624Y-1297D01*
G01X9618Y-1282D01*
G01X9614Y-1265D01*
G01X9611Y-1249D01*
G01X9610Y-1232D01*
G01X9577D01*
G01X9578Y-1253D01*
G01X9581Y-1273D01*
G01X9586Y-1291D01*
G01X9593Y-1310D01*
G01X9601Y-1327D01*
G01X9611Y-1344D01*
G01X9623Y-1359D01*
G01X9635Y-1373D01*
G01X9649Y-1386D01*
G01X9665Y-1398D01*
G01X9681Y-1408D01*
G01X9699Y-1416D01*
G01X9717Y-1422D01*
G01X9736Y-1427D01*
G01X9756Y-1431D01*
G01X9776Y-1432D01*
G01X9797Y-1431D01*
G01X9817Y-1427D01*
G01X9836Y-1422D01*
G01X9854Y-1416D01*
G01X9871Y-1408D01*
G01X9888Y-1398D01*
G01X9903Y-1386D01*
G01X9918Y-1373D01*
G01X9930Y-1359D01*
G01X9942Y-1344D01*
G01X9952Y-1327D01*
G01X9960Y-1310D01*
G01X9967Y-1291D01*
G01X9972Y-1273D01*
G01X9975Y-1253D01*
G01X9976Y-1232D01*
G01X9975Y-1212D01*
G01X9972Y-1192D01*
G01X9967Y-1173D01*
G01X9960Y-1155D01*
G01X9952Y-1137D01*
G01X9942Y-1121D01*
G01X9930Y-1105D01*
G01X9918Y-1091D01*
G01X9903Y-1078D01*
G01X9888Y-1067D01*
G01X9871Y-1057D01*
G01X9854Y-1049D01*
G01X9836Y-1042D01*
G01X9817Y-1037D01*
G01X9797Y-1034D01*
G37*
G36*
G01X12316Y-1033D02*
G01X12296Y-1034D01*
G01X12276Y-1037D01*
G01X12257Y-1042D01*
G01X12239Y-1049D01*
G01X12221Y-1057D01*
G01X12205Y-1067D01*
G01X12189Y-1078D01*
G01X12175Y-1091D01*
G01X12163Y-1105D01*
G01X12151Y-1121D01*
G01X12141Y-1137D01*
G01X12133Y-1155D01*
G01X12126Y-1173D01*
G01X12121Y-1192D01*
G01X12118Y-1212D01*
G01X12117Y-1232D01*
G01X12150D01*
G01X12151Y-1215D01*
G01X12154Y-1199D01*
G01X12158Y-1183D01*
G01X12164Y-1167D01*
G01X12170Y-1153D01*
G01X12179Y-1139D01*
G01X12188Y-1127D01*
G01X12199Y-1115D01*
G01X12211Y-1104D01*
G01X12223Y-1094D01*
G01X12237Y-1086D01*
G01X12252Y-1079D01*
G01X12267Y-1073D01*
G01X12283Y-1069D01*
G01X12300Y-1067D01*
G01X12316Y-1066D01*
G01X12333Y-1067D01*
G01X12350Y-1069D01*
G01X12366Y-1073D01*
G01X12381Y-1079D01*
G01X12396Y-1086D01*
G01X12409Y-1094D01*
G01X12422Y-1104D01*
G01X12434Y-1115D01*
G01X12444Y-1127D01*
G01X12454Y-1139D01*
G01X12463Y-1153D01*
G01X12469Y-1167D01*
G01X12475Y-1183D01*
G01X12479Y-1199D01*
G01X12482Y-1215D01*
G01X12483Y-1232D01*
G01X12482Y-1249D01*
G01X12479Y-1265D01*
G01X12475Y-1282D01*
G01X12469Y-1297D01*
G01X12463Y-1311D01*
G01X12454Y-1325D01*
G01X12444Y-1338D01*
G01X12434Y-1350D01*
G01X12422Y-1360D01*
G01X12409Y-1370D01*
G01X12396Y-1378D01*
G01X12381Y-1385D01*
G01X12366Y-1391D01*
G01X12350Y-1395D01*
G01X12333Y-1398D01*
G01X12316Y-1399D01*
G01X12300Y-1398D01*
G01X12283Y-1395D01*
G01X12267Y-1391D01*
G01X12252Y-1385D01*
G01X12237Y-1378D01*
G01X12223Y-1370D01*
G01X12211Y-1360D01*
G01X12199Y-1350D01*
G01X12188Y-1338D01*
G01X12179Y-1325D01*
G01X12170Y-1311D01*
G01X12164Y-1297D01*
G01X12158Y-1282D01*
G01X12154Y-1265D01*
G01X12151Y-1249D01*
G01X12150Y-1232D01*
G01X12117D01*
G01X12118Y-1253D01*
G01X12121Y-1273D01*
G01X12126Y-1291D01*
G01X12133Y-1310D01*
G01X12141Y-1327D01*
G01X12151Y-1344D01*
G01X12163Y-1359D01*
G01X12175Y-1373D01*
G01X12189Y-1386D01*
G01X12205Y-1398D01*
G01X12221Y-1408D01*
G01X12239Y-1416D01*
G01X12257Y-1422D01*
G01X12276Y-1427D01*
G01X12296Y-1431D01*
G01X12316Y-1432D01*
G01X12337Y-1431D01*
G01X12357Y-1427D01*
G01X12376Y-1422D01*
G01X12394Y-1416D01*
G01X12411Y-1408D01*
G01X12428Y-1398D01*
G01X12443Y-1386D01*
G01X12458Y-1373D01*
G01X12470Y-1359D01*
G01X12482Y-1344D01*
G01X12492Y-1327D01*
G01X12500Y-1310D01*
G01X12507Y-1291D01*
G01X12512Y-1273D01*
G01X12515Y-1253D01*
G01X12516Y-1232D01*
G01X12515Y-1212D01*
G01X12512Y-1192D01*
G01X12507Y-1173D01*
G01X12500Y-1155D01*
G01X12492Y-1137D01*
G01X12482Y-1121D01*
G01X12470Y-1105D01*
G01X12458Y-1091D01*
G01X12443Y-1078D01*
G01X12428Y-1067D01*
G01X12411Y-1057D01*
G01X12394Y-1049D01*
G01X12376Y-1042D01*
G01X12357Y-1037D01*
G01X12337Y-1034D01*
G37*
G36*
G01X14856Y-1033D02*
G01X14836Y-1034D01*
G01X14816Y-1037D01*
G01X14797Y-1042D01*
G01X14779Y-1049D01*
G01X14761Y-1057D01*
G01X14745Y-1067D01*
G01X14729Y-1078D01*
G01X14715Y-1091D01*
G01X14703Y-1105D01*
G01X14691Y-1121D01*
G01X14681Y-1137D01*
G01X14673Y-1155D01*
G01X14666Y-1173D01*
G01X14661Y-1192D01*
G01X14658Y-1212D01*
G01X14657Y-1232D01*
G01X14690D01*
G01X14691Y-1215D01*
G01X14694Y-1199D01*
G01X14698Y-1183D01*
G01X14704Y-1167D01*
G01X14710Y-1153D01*
G01X14719Y-1139D01*
G01X14728Y-1127D01*
G01X14739Y-1115D01*
G01X14751Y-1104D01*
G01X14763Y-1094D01*
G01X14777Y-1086D01*
G01X14792Y-1079D01*
G01X14807Y-1073D01*
G01X14823Y-1069D01*
G01X14840Y-1067D01*
G01X14856Y-1066D01*
G01X14873Y-1067D01*
G01X14890Y-1069D01*
G01X14906Y-1073D01*
G01X14921Y-1079D01*
G01X14936Y-1086D01*
G01X14949Y-1094D01*
G01X14962Y-1104D01*
G01X14974Y-1115D01*
G01X14984Y-1127D01*
G01X14994Y-1139D01*
G01X15003Y-1153D01*
G01X15009Y-1167D01*
G01X15015Y-1183D01*
G01X15019Y-1199D01*
G01X15022Y-1215D01*
G01X15023Y-1232D01*
G01X15022Y-1249D01*
G01X15019Y-1265D01*
G01X15015Y-1282D01*
G01X15009Y-1297D01*
G01X15003Y-1311D01*
G01X14994Y-1325D01*
G01X14984Y-1338D01*
G01X14974Y-1350D01*
G01X14962Y-1360D01*
G01X14949Y-1370D01*
G01X14936Y-1378D01*
G01X14921Y-1385D01*
G01X14906Y-1391D01*
G01X14890Y-1395D01*
G01X14873Y-1398D01*
G01X14856Y-1399D01*
G01X14840Y-1398D01*
G01X14823Y-1395D01*
G01X14807Y-1391D01*
G01X14792Y-1385D01*
G01X14777Y-1378D01*
G01X14763Y-1370D01*
G01X14751Y-1360D01*
G01X14739Y-1350D01*
G01X14728Y-1338D01*
G01X14719Y-1325D01*
G01X14710Y-1311D01*
G01X14704Y-1297D01*
G01X14698Y-1282D01*
G01X14694Y-1265D01*
G01X14691Y-1249D01*
G01X14690Y-1232D01*
G01X14657D01*
G01X14658Y-1253D01*
G01X14661Y-1273D01*
G01X14666Y-1291D01*
G01X14673Y-1310D01*
G01X14681Y-1327D01*
G01X14691Y-1344D01*
G01X14703Y-1359D01*
G01X14715Y-1373D01*
G01X14729Y-1386D01*
G01X14745Y-1398D01*
G01X14761Y-1408D01*
G01X14779Y-1416D01*
G01X14797Y-1422D01*
G01X14816Y-1427D01*
G01X14836Y-1431D01*
G01X14856Y-1432D01*
G01X14877Y-1431D01*
G01X14897Y-1427D01*
G01X14916Y-1422D01*
G01X14934Y-1416D01*
G01X14951Y-1408D01*
G01X14968Y-1398D01*
G01X14983Y-1386D01*
G01X14998Y-1373D01*
G01X15010Y-1359D01*
G01X15022Y-1344D01*
G01X15032Y-1327D01*
G01X15040Y-1310D01*
G01X15047Y-1291D01*
G01X15052Y-1273D01*
G01X15055Y-1253D01*
G01X15056Y-1232D01*
G01X15055Y-1212D01*
G01X15052Y-1192D01*
G01X15047Y-1173D01*
G01X15040Y-1155D01*
G01X15032Y-1137D01*
G01X15022Y-1121D01*
G01X15010Y-1105D01*
G01X14998Y-1091D01*
G01X14983Y-1078D01*
G01X14968Y-1067D01*
G01X14951Y-1057D01*
G01X14934Y-1049D01*
G01X14916Y-1042D01*
G01X14897Y-1037D01*
G01X14877Y-1034D01*
G37*
G36*
G01X17396Y-1033D02*
G01X17376Y-1034D01*
G01X17356Y-1037D01*
G01X17337Y-1042D01*
G01X17319Y-1049D01*
G01X17301Y-1057D01*
G01X17285Y-1067D01*
G01X17269Y-1078D01*
G01X17255Y-1091D01*
G01X17243Y-1105D01*
G01X17231Y-1121D01*
G01X17221Y-1137D01*
G01X17213Y-1155D01*
G01X17206Y-1173D01*
G01X17201Y-1192D01*
G01X17198Y-1212D01*
G01X17197Y-1232D01*
G01X17230D01*
G01X17231Y-1215D01*
G01X17234Y-1199D01*
G01X17238Y-1183D01*
G01X17244Y-1167D01*
G01X17250Y-1153D01*
G01X17259Y-1139D01*
G01X17268Y-1127D01*
G01X17279Y-1115D01*
G01X17291Y-1104D01*
G01X17303Y-1094D01*
G01X17317Y-1086D01*
G01X17332Y-1079D01*
G01X17347Y-1073D01*
G01X17363Y-1069D01*
G01X17380Y-1067D01*
G01X17396Y-1066D01*
G01X17413Y-1067D01*
G01X17430Y-1069D01*
G01X17446Y-1073D01*
G01X17461Y-1079D01*
G01X17476Y-1086D01*
G01X17489Y-1094D01*
G01X17502Y-1104D01*
G01X17514Y-1115D01*
G01X17524Y-1127D01*
G01X17534Y-1139D01*
G01X17543Y-1153D01*
G01X17549Y-1167D01*
G01X17555Y-1183D01*
G01X17559Y-1199D01*
G01X17562Y-1215D01*
G01X17563Y-1232D01*
G01X17562Y-1249D01*
G01X17559Y-1265D01*
G01X17555Y-1282D01*
G01X17549Y-1297D01*
G01X17543Y-1311D01*
G01X17534Y-1325D01*
G01X17524Y-1338D01*
G01X17514Y-1350D01*
G01X17502Y-1360D01*
G01X17489Y-1370D01*
G01X17476Y-1378D01*
G01X17461Y-1385D01*
G01X17446Y-1391D01*
G01X17430Y-1395D01*
G01X17413Y-1398D01*
G01X17396Y-1399D01*
G01X17380Y-1398D01*
G01X17363Y-1395D01*
G01X17347Y-1391D01*
G01X17332Y-1385D01*
G01X17317Y-1378D01*
G01X17303Y-1370D01*
G01X17291Y-1360D01*
G01X17279Y-1350D01*
G01X17268Y-1338D01*
G01X17259Y-1325D01*
G01X17250Y-1311D01*
G01X17244Y-1297D01*
G01X17238Y-1282D01*
G01X17234Y-1265D01*
G01X17231Y-1249D01*
G01X17230Y-1232D01*
G01X17197D01*
G01X17198Y-1253D01*
G01X17201Y-1273D01*
G01X17206Y-1291D01*
G01X17213Y-1310D01*
G01X17221Y-1327D01*
G01X17231Y-1344D01*
G01X17243Y-1359D01*
G01X17255Y-1373D01*
G01X17269Y-1386D01*
G01X17285Y-1398D01*
G01X17301Y-1408D01*
G01X17319Y-1416D01*
G01X17337Y-1422D01*
G01X17356Y-1427D01*
G01X17376Y-1431D01*
G01X17396Y-1432D01*
G01X17417Y-1431D01*
G01X17437Y-1427D01*
G01X17456Y-1422D01*
G01X17474Y-1416D01*
G01X17491Y-1408D01*
G01X17508Y-1398D01*
G01X17523Y-1386D01*
G01X17538Y-1373D01*
G01X17550Y-1359D01*
G01X17562Y-1344D01*
G01X17572Y-1327D01*
G01X17580Y-1310D01*
G01X17587Y-1291D01*
G01X17592Y-1273D01*
G01X17595Y-1253D01*
G01X17596Y-1232D01*
G01X17595Y-1212D01*
G01X17592Y-1192D01*
G01X17587Y-1173D01*
G01X17580Y-1155D01*
G01X17572Y-1137D01*
G01X17562Y-1121D01*
G01X17550Y-1105D01*
G01X17538Y-1091D01*
G01X17523Y-1078D01*
G01X17508Y-1067D01*
G01X17491Y-1057D01*
G01X17474Y-1049D01*
G01X17456Y-1042D01*
G01X17437Y-1037D01*
G01X17417Y-1034D01*
G37*
G36*
G01X7366Y-23803D02*
G01X7346Y-23805D01*
G01X7326Y-23807D01*
G01X7307Y-23812D01*
G01X7288Y-23819D01*
G01X7271Y-23828D01*
G01X7255Y-23838D01*
G01X7239Y-23849D01*
G01X7225Y-23862D01*
G01X7212Y-23876D01*
G01X7201Y-23892D01*
G01X7191Y-23908D01*
G01X7182Y-23925D01*
G01X7176Y-23944D01*
G01X7170Y-23963D01*
G01X7168Y-23983D01*
G01X7167Y-24003D01*
G01X7200D01*
G01X7201Y-23986D01*
G01X7203Y-23969D01*
G01X7208Y-23954D01*
G01X7213Y-23938D01*
G01X7220Y-23924D01*
G01X7228Y-23910D01*
G01X7238Y-23897D01*
G01X7249Y-23886D01*
G01X7260Y-23875D01*
G01X7273Y-23865D01*
G01X7287Y-23857D01*
G01X7301Y-23850D01*
G01X7317Y-23845D01*
G01X7332Y-23840D01*
G01X7349Y-23838D01*
G01X7366Y-23837D01*
G01X7383Y-23838D01*
G01X7400Y-23840D01*
G01X7415Y-23845D01*
G01X7431Y-23850D01*
G01X7445Y-23857D01*
G01X7459Y-23865D01*
G01X7472Y-23875D01*
G01X7483Y-23886D01*
G01X7494Y-23897D01*
G01X7504Y-23910D01*
G01X7512Y-23924D01*
G01X7519Y-23938D01*
G01X7524Y-23954D01*
G01X7529Y-23969D01*
G01X7531Y-23986D01*
G01X7532Y-24003D01*
G01X7531Y-24020D01*
G01X7529Y-24037D01*
G01X7524Y-24052D01*
G01X7519Y-24068D01*
G01X7512Y-24082D01*
G01X7504Y-24096D01*
G01X7494Y-24109D01*
G01X7483Y-24120D01*
G01X7472Y-24131D01*
G01X7459Y-24141D01*
G01X7445Y-24149D01*
G01X7431Y-24156D01*
G01X7415Y-24161D01*
G01X7400Y-24166D01*
G01X7383Y-24168D01*
G01X7366Y-24169D01*
G01X7349Y-24168D01*
G01X7332Y-24166D01*
G01X7317Y-24161D01*
G01X7301Y-24156D01*
G01X7287Y-24149D01*
G01X7273Y-24141D01*
G01X7260Y-24131D01*
G01X7249Y-24120D01*
G01X7238Y-24109D01*
G01X7228Y-24096D01*
G01X7220Y-24082D01*
G01X7213Y-24068D01*
G01X7208Y-24052D01*
G01X7203Y-24037D01*
G01X7201Y-24020D01*
G01X7200Y-24003D01*
G01X7167D01*
G01X7168Y-24023D01*
G01X7170Y-24043D01*
G01X7176Y-24062D01*
G01X7182Y-24081D01*
G01X7191Y-24098D01*
G01X7201Y-24114D01*
G01X7212Y-24130D01*
G01X7225Y-24144D01*
G01X7239Y-24157D01*
G01X7255Y-24168D01*
G01X7271Y-24178D01*
G01X7288Y-24187D01*
G01X7307Y-24193D01*
G01X7326Y-24199D01*
G01X7346Y-24201D01*
G01X7366Y-24202D01*
G01X7386Y-24201D01*
G01X7406Y-24199D01*
G01X7425Y-24193D01*
G01X7444Y-24187D01*
G01X7461Y-24178D01*
G01X7477Y-24168D01*
G01X7493Y-24157D01*
G01X7507Y-24144D01*
G01X7520Y-24130D01*
G01X7531Y-24114D01*
G01X7541Y-24098D01*
G01X7550Y-24081D01*
G01X7557Y-24062D01*
G01X7562Y-24043D01*
G01X7564Y-24023D01*
G01X7566Y-24003D01*
G01X7564Y-23983D01*
G01X7562Y-23963D01*
G01X7557Y-23944D01*
G01X7550Y-23925D01*
G01X7541Y-23908D01*
G01X7531Y-23892D01*
G01X7520Y-23876D01*
G01X7507Y-23862D01*
G01X7493Y-23849D01*
G01X7477Y-23838D01*
G01X7461Y-23828D01*
G01X7444Y-23819D01*
G01X7425Y-23812D01*
G01X7406Y-23807D01*
G01X7386Y-23805D01*
G37*
G36*
G01X9906Y-23803D02*
G01X9886Y-23805D01*
G01X9866Y-23807D01*
G01X9847Y-23812D01*
G01X9828Y-23819D01*
G01X9811Y-23828D01*
G01X9795Y-23838D01*
G01X9779Y-23849D01*
G01X9765Y-23862D01*
G01X9752Y-23876D01*
G01X9741Y-23892D01*
G01X9731Y-23908D01*
G01X9722Y-23925D01*
G01X9716Y-23944D01*
G01X9710Y-23963D01*
G01X9708Y-23983D01*
G01X9706Y-24003D01*
G01X9740D01*
G01X9741Y-23986D01*
G01X9743Y-23969D01*
G01X9748Y-23954D01*
G01X9753Y-23938D01*
G01X9760Y-23924D01*
G01X9768Y-23910D01*
G01X9778Y-23897D01*
G01X9789Y-23886D01*
G01X9800Y-23875D01*
G01X9813Y-23865D01*
G01X9827Y-23857D01*
G01X9841Y-23850D01*
G01X9857Y-23845D01*
G01X9872Y-23840D01*
G01X9889Y-23838D01*
G01X9906Y-23837D01*
G01X9923Y-23838D01*
G01X9940Y-23840D01*
G01X9955Y-23845D01*
G01X9971Y-23850D01*
G01X9985Y-23857D01*
G01X9999Y-23865D01*
G01X10012Y-23875D01*
G01X10023Y-23886D01*
G01X10034Y-23897D01*
G01X10044Y-23910D01*
G01X10052Y-23924D01*
G01X10059Y-23938D01*
G01X10064Y-23954D01*
G01X10069Y-23969D01*
G01X10071Y-23986D01*
G01X10072Y-24003D01*
G01X10071Y-24020D01*
G01X10069Y-24037D01*
G01X10064Y-24052D01*
G01X10059Y-24068D01*
G01X10052Y-24082D01*
G01X10044Y-24096D01*
G01X10034Y-24109D01*
G01X10023Y-24120D01*
G01X10012Y-24131D01*
G01X9999Y-24141D01*
G01X9985Y-24149D01*
G01X9971Y-24156D01*
G01X9955Y-24161D01*
G01X9940Y-24166D01*
G01X9923Y-24168D01*
G01X9906Y-24169D01*
G01X9889Y-24168D01*
G01X9872Y-24166D01*
G01X9857Y-24161D01*
G01X9841Y-24156D01*
G01X9827Y-24149D01*
G01X9813Y-24141D01*
G01X9800Y-24131D01*
G01X9789Y-24120D01*
G01X9778Y-24109D01*
G01X9768Y-24096D01*
G01X9760Y-24082D01*
G01X9753Y-24068D01*
G01X9748Y-24052D01*
G01X9743Y-24037D01*
G01X9741Y-24020D01*
G01X9740Y-24003D01*
G01X9706D01*
G01X9708Y-24023D01*
G01X9710Y-24043D01*
G01X9716Y-24062D01*
G01X9722Y-24081D01*
G01X9731Y-24098D01*
G01X9741Y-24114D01*
G01X9752Y-24130D01*
G01X9765Y-24144D01*
G01X9779Y-24157D01*
G01X9795Y-24168D01*
G01X9811Y-24178D01*
G01X9828Y-24187D01*
G01X9847Y-24193D01*
G01X9866Y-24199D01*
G01X9886Y-24201D01*
G01X9906Y-24202D01*
G01X9926Y-24201D01*
G01X9946Y-24199D01*
G01X9965Y-24193D01*
G01X9984Y-24187D01*
G01X10001Y-24178D01*
G01X10017Y-24168D01*
G01X10033Y-24157D01*
G01X10047Y-24144D01*
G01X10060Y-24130D01*
G01X10071Y-24114D01*
G01X10081Y-24098D01*
G01X10090Y-24081D01*
G01X10097Y-24062D01*
G01X10102Y-24043D01*
G01X10104Y-24023D01*
G01X10106Y-24003D01*
G01X10104Y-23983D01*
G01X10102Y-23963D01*
G01X10097Y-23944D01*
G01X10090Y-23925D01*
G01X10081Y-23908D01*
G01X10071Y-23892D01*
G01X10060Y-23876D01*
G01X10047Y-23862D01*
G01X10033Y-23849D01*
G01X10017Y-23838D01*
G01X10001Y-23828D01*
G01X9984Y-23819D01*
G01X9965Y-23812D01*
G01X9946Y-23807D01*
G01X9926Y-23805D01*
G37*
G36*
G01X7366Y-26343D02*
G01X7346Y-26345D01*
G01X7326Y-26347D01*
G01X7307Y-26352D01*
G01X7288Y-26359D01*
G01X7271Y-26368D01*
G01X7255Y-26378D01*
G01X7239Y-26389D01*
G01X7225Y-26402D01*
G01X7212Y-26416D01*
G01X7201Y-26432D01*
G01X7191Y-26448D01*
G01X7182Y-26465D01*
G01X7176Y-26484D01*
G01X7170Y-26503D01*
G01X7168Y-26523D01*
G01X7167Y-26543D01*
G01X7200D01*
G01X7201Y-26526D01*
G01X7203Y-26509D01*
G01X7208Y-26494D01*
G01X7213Y-26478D01*
G01X7220Y-26464D01*
G01X7228Y-26450D01*
G01X7238Y-26437D01*
G01X7249Y-26426D01*
G01X7260Y-26415D01*
G01X7273Y-26405D01*
G01X7287Y-26397D01*
G01X7301Y-26390D01*
G01X7317Y-26385D01*
G01X7332Y-26380D01*
G01X7349Y-26378D01*
G01X7366Y-26377D01*
G01X7383Y-26378D01*
G01X7400Y-26380D01*
G01X7415Y-26385D01*
G01X7431Y-26390D01*
G01X7445Y-26397D01*
G01X7459Y-26405D01*
G01X7472Y-26415D01*
G01X7483Y-26426D01*
G01X7494Y-26437D01*
G01X7504Y-26450D01*
G01X7512Y-26464D01*
G01X7519Y-26478D01*
G01X7524Y-26494D01*
G01X7529Y-26509D01*
G01X7531Y-26526D01*
G01X7532Y-26543D01*
G01X7531Y-26560D01*
G01X7529Y-26577D01*
G01X7524Y-26592D01*
G01X7519Y-26608D01*
G01X7512Y-26622D01*
G01X7504Y-26636D01*
G01X7494Y-26649D01*
G01X7483Y-26660D01*
G01X7472Y-26671D01*
G01X7459Y-26681D01*
G01X7445Y-26689D01*
G01X7431Y-26696D01*
G01X7415Y-26701D01*
G01X7400Y-26706D01*
G01X7383Y-26708D01*
G01X7366Y-26709D01*
G01X7349Y-26708D01*
G01X7332Y-26706D01*
G01X7317Y-26701D01*
G01X7301Y-26696D01*
G01X7287Y-26689D01*
G01X7273Y-26681D01*
G01X7260Y-26671D01*
G01X7249Y-26660D01*
G01X7238Y-26649D01*
G01X7228Y-26636D01*
G01X7220Y-26622D01*
G01X7213Y-26608D01*
G01X7208Y-26592D01*
G01X7203Y-26577D01*
G01X7201Y-26560D01*
G01X7200Y-26543D01*
G01X7167D01*
G01X7168Y-26563D01*
G01X7170Y-26583D01*
G01X7176Y-26602D01*
G01X7182Y-26621D01*
G01X7191Y-26638D01*
G01X7201Y-26654D01*
G01X7212Y-26670D01*
G01X7225Y-26684D01*
G01X7239Y-26697D01*
G01X7255Y-26708D01*
G01X7271Y-26718D01*
G01X7288Y-26727D01*
G01X7307Y-26733D01*
G01X7326Y-26739D01*
G01X7346Y-26741D01*
G01X7366Y-26742D01*
G01X7386Y-26741D01*
G01X7406Y-26739D01*
G01X7425Y-26733D01*
G01X7444Y-26727D01*
G01X7461Y-26718D01*
G01X7477Y-26708D01*
G01X7493Y-26697D01*
G01X7507Y-26684D01*
G01X7520Y-26670D01*
G01X7531Y-26654D01*
G01X7541Y-26638D01*
G01X7550Y-26621D01*
G01X7557Y-26602D01*
G01X7562Y-26583D01*
G01X7564Y-26563D01*
G01X7566Y-26543D01*
G01X7564Y-26523D01*
G01X7562Y-26503D01*
G01X7557Y-26484D01*
G01X7550Y-26465D01*
G01X7541Y-26448D01*
G01X7531Y-26432D01*
G01X7520Y-26416D01*
G01X7507Y-26402D01*
G01X7493Y-26389D01*
G01X7477Y-26378D01*
G01X7461Y-26368D01*
G01X7444Y-26359D01*
G01X7425Y-26352D01*
G01X7406Y-26347D01*
G01X7386Y-26345D01*
G37*
G36*
G01X9906Y-26343D02*
G01X9886Y-26345D01*
G01X9866Y-26347D01*
G01X9847Y-26352D01*
G01X9828Y-26359D01*
G01X9811Y-26368D01*
G01X9795Y-26378D01*
G01X9779Y-26389D01*
G01X9765Y-26402D01*
G01X9752Y-26416D01*
G01X9741Y-26432D01*
G01X9731Y-26448D01*
G01X9722Y-26465D01*
G01X9716Y-26484D01*
G01X9710Y-26503D01*
G01X9708Y-26523D01*
G01X9706Y-26543D01*
G01X9740D01*
G01X9741Y-26526D01*
G01X9743Y-26509D01*
G01X9748Y-26494D01*
G01X9753Y-26478D01*
G01X9760Y-26464D01*
G01X9768Y-26450D01*
G01X9778Y-26437D01*
G01X9789Y-26426D01*
G01X9800Y-26415D01*
G01X9813Y-26405D01*
G01X9827Y-26397D01*
G01X9841Y-26390D01*
G01X9857Y-26385D01*
G01X9872Y-26380D01*
G01X9889Y-26378D01*
G01X9906Y-26377D01*
G01X9923Y-26378D01*
G01X9940Y-26380D01*
G01X9955Y-26385D01*
G01X9971Y-26390D01*
G01X9985Y-26397D01*
G01X9999Y-26405D01*
G01X10012Y-26415D01*
G01X10023Y-26426D01*
G01X10034Y-26437D01*
G01X10044Y-26450D01*
G01X10052Y-26464D01*
G01X10059Y-26478D01*
G01X10064Y-26494D01*
G01X10069Y-26509D01*
G01X10071Y-26526D01*
G01X10072Y-26543D01*
G01X10071Y-26560D01*
G01X10069Y-26577D01*
G01X10064Y-26592D01*
G01X10059Y-26608D01*
G01X10052Y-26622D01*
G01X10044Y-26636D01*
G01X10034Y-26649D01*
G01X10023Y-26660D01*
G01X10012Y-26671D01*
G01X9999Y-26681D01*
G01X9985Y-26689D01*
G01X9971Y-26696D01*
G01X9955Y-26701D01*
G01X9940Y-26706D01*
G01X9923Y-26708D01*
G01X9906Y-26709D01*
G01X9889Y-26708D01*
G01X9872Y-26706D01*
G01X9857Y-26701D01*
G01X9841Y-26696D01*
G01X9827Y-26689D01*
G01X9813Y-26681D01*
G01X9800Y-26671D01*
G01X9789Y-26660D01*
G01X9778Y-26649D01*
G01X9768Y-26636D01*
G01X9760Y-26622D01*
G01X9753Y-26608D01*
G01X9748Y-26592D01*
G01X9743Y-26577D01*
G01X9741Y-26560D01*
G01X9740Y-26543D01*
G01X9706D01*
G01X9708Y-26563D01*
G01X9710Y-26583D01*
G01X9716Y-26602D01*
G01X9722Y-26621D01*
G01X9731Y-26638D01*
G01X9741Y-26654D01*
G01X9752Y-26670D01*
G01X9765Y-26684D01*
G01X9779Y-26697D01*
G01X9795Y-26708D01*
G01X9811Y-26718D01*
G01X9828Y-26727D01*
G01X9847Y-26733D01*
G01X9866Y-26739D01*
G01X9886Y-26741D01*
G01X9906Y-26742D01*
G01X9926Y-26741D01*
G01X9946Y-26739D01*
G01X9965Y-26733D01*
G01X9984Y-26727D01*
G01X10001Y-26718D01*
G01X10017Y-26708D01*
G01X10033Y-26697D01*
G01X10047Y-26684D01*
G01X10060Y-26670D01*
G01X10071Y-26654D01*
G01X10081Y-26638D01*
G01X10090Y-26621D01*
G01X10097Y-26602D01*
G01X10102Y-26583D01*
G01X10104Y-26563D01*
G01X10106Y-26543D01*
G01X10104Y-26523D01*
G01X10102Y-26503D01*
G01X10097Y-26484D01*
G01X10090Y-26465D01*
G01X10081Y-26448D01*
G01X10071Y-26432D01*
G01X10060Y-26416D01*
G01X10047Y-26402D01*
G01X10033Y-26389D01*
G01X10017Y-26378D01*
G01X10001Y-26368D01*
G01X9984Y-26359D01*
G01X9965Y-26352D01*
G01X9946Y-26347D01*
G01X9926Y-26345D01*
G37*
G36*
G01X12446Y-26343D02*
G01X12426Y-26345D01*
G01X12406Y-26347D01*
G01X12387Y-26352D01*
G01X12368Y-26359D01*
G01X12351Y-26368D01*
G01X12335Y-26378D01*
G01X12319Y-26389D01*
G01X12305Y-26402D01*
G01X12292Y-26416D01*
G01X12281Y-26432D01*
G01X12271Y-26448D01*
G01X12262Y-26465D01*
G01X12256Y-26484D01*
G01X12250Y-26503D01*
G01X12248Y-26523D01*
G01X12246Y-26543D01*
G01X12280D01*
G01X12281Y-26526D01*
G01X12283Y-26509D01*
G01X12288Y-26494D01*
G01X12293Y-26478D01*
G01X12300Y-26464D01*
G01X12308Y-26450D01*
G01X12318Y-26437D01*
G01X12329Y-26426D01*
G01X12340Y-26415D01*
G01X12353Y-26405D01*
G01X12367Y-26397D01*
G01X12381Y-26390D01*
G01X12397Y-26385D01*
G01X12412Y-26380D01*
G01X12429Y-26378D01*
G01X12446Y-26377D01*
G01X12463Y-26378D01*
G01X12480Y-26380D01*
G01X12495Y-26385D01*
G01X12511Y-26390D01*
G01X12525Y-26397D01*
G01X12539Y-26405D01*
G01X12552Y-26415D01*
G01X12563Y-26426D01*
G01X12574Y-26437D01*
G01X12584Y-26450D01*
G01X12592Y-26464D01*
G01X12599Y-26478D01*
G01X12604Y-26494D01*
G01X12609Y-26509D01*
G01X12611Y-26526D01*
G01X12612Y-26543D01*
G01X12611Y-26560D01*
G01X12609Y-26577D01*
G01X12604Y-26592D01*
G01X12599Y-26608D01*
G01X12592Y-26622D01*
G01X12584Y-26636D01*
G01X12574Y-26649D01*
G01X12563Y-26660D01*
G01X12552Y-26671D01*
G01X12539Y-26681D01*
G01X12525Y-26689D01*
G01X12511Y-26696D01*
G01X12495Y-26701D01*
G01X12480Y-26706D01*
G01X12463Y-26708D01*
G01X12446Y-26709D01*
G01X12429Y-26708D01*
G01X12412Y-26706D01*
G01X12397Y-26701D01*
G01X12381Y-26696D01*
G01X12367Y-26689D01*
G01X12353Y-26681D01*
G01X12340Y-26671D01*
G01X12329Y-26660D01*
G01X12318Y-26649D01*
G01X12308Y-26636D01*
G01X12300Y-26622D01*
G01X12293Y-26608D01*
G01X12288Y-26592D01*
G01X12283Y-26577D01*
G01X12281Y-26560D01*
G01X12280Y-26543D01*
G01X12246D01*
G01X12248Y-26563D01*
G01X12250Y-26583D01*
G01X12256Y-26602D01*
G01X12262Y-26621D01*
G01X12271Y-26638D01*
G01X12281Y-26654D01*
G01X12292Y-26670D01*
G01X12305Y-26684D01*
G01X12319Y-26697D01*
G01X12335Y-26708D01*
G01X12351Y-26718D01*
G01X12368Y-26727D01*
G01X12387Y-26733D01*
G01X12406Y-26739D01*
G01X12426Y-26741D01*
G01X12446Y-26742D01*
G01X12466Y-26741D01*
G01X12486Y-26739D01*
G01X12505Y-26733D01*
G01X12524Y-26727D01*
G01X12541Y-26718D01*
G01X12557Y-26708D01*
G01X12573Y-26697D01*
G01X12587Y-26684D01*
G01X12600Y-26670D01*
G01X12611Y-26654D01*
G01X12621Y-26638D01*
G01X12630Y-26621D01*
G01X12637Y-26602D01*
G01X12642Y-26583D01*
G01X12644Y-26563D01*
G01X12646Y-26543D01*
G01X12644Y-26523D01*
G01X12642Y-26503D01*
G01X12637Y-26484D01*
G01X12630Y-26465D01*
G01X12621Y-26448D01*
G01X12611Y-26432D01*
G01X12600Y-26416D01*
G01X12587Y-26402D01*
G01X12573Y-26389D01*
G01X12557Y-26378D01*
G01X12541Y-26368D01*
G01X12524Y-26359D01*
G01X12505Y-26352D01*
G01X12486Y-26347D01*
G01X12466Y-26345D01*
G37*
G36*
G01X12446Y-23803D02*
G01X12426Y-23805D01*
G01X12406Y-23807D01*
G01X12387Y-23812D01*
G01X12368Y-23819D01*
G01X12351Y-23828D01*
G01X12335Y-23838D01*
G01X12319Y-23849D01*
G01X12305Y-23862D01*
G01X12292Y-23876D01*
G01X12281Y-23892D01*
G01X12271Y-23908D01*
G01X12262Y-23925D01*
G01X12256Y-23944D01*
G01X12250Y-23963D01*
G01X12248Y-23983D01*
G01X12246Y-24003D01*
G01X12280D01*
G01X12281Y-23986D01*
G01X12283Y-23969D01*
G01X12288Y-23954D01*
G01X12293Y-23938D01*
G01X12300Y-23924D01*
G01X12308Y-23910D01*
G01X12318Y-23897D01*
G01X12329Y-23886D01*
G01X12340Y-23875D01*
G01X12353Y-23865D01*
G01X12367Y-23857D01*
G01X12381Y-23850D01*
G01X12397Y-23845D01*
G01X12412Y-23840D01*
G01X12429Y-23838D01*
G01X12446Y-23837D01*
G01X12463Y-23838D01*
G01X12480Y-23840D01*
G01X12495Y-23845D01*
G01X12511Y-23850D01*
G01X12525Y-23857D01*
G01X12539Y-23865D01*
G01X12552Y-23875D01*
G01X12563Y-23886D01*
G01X12574Y-23897D01*
G01X12584Y-23910D01*
G01X12592Y-23924D01*
G01X12599Y-23938D01*
G01X12604Y-23954D01*
G01X12609Y-23969D01*
G01X12611Y-23986D01*
G01X12612Y-24003D01*
G01X12611Y-24020D01*
G01X12609Y-24037D01*
G01X12604Y-24052D01*
G01X12599Y-24068D01*
G01X12592Y-24082D01*
G01X12584Y-24096D01*
G01X12574Y-24109D01*
G01X12563Y-24120D01*
G01X12552Y-24131D01*
G01X12539Y-24141D01*
G01X12525Y-24149D01*
G01X12511Y-24156D01*
G01X12495Y-24161D01*
G01X12480Y-24166D01*
G01X12463Y-24168D01*
G01X12446Y-24169D01*
G01X12429Y-24168D01*
G01X12412Y-24166D01*
G01X12397Y-24161D01*
G01X12381Y-24156D01*
G01X12367Y-24149D01*
G01X12353Y-24141D01*
G01X12340Y-24131D01*
G01X12329Y-24120D01*
G01X12318Y-24109D01*
G01X12308Y-24096D01*
G01X12300Y-24082D01*
G01X12293Y-24068D01*
G01X12288Y-24052D01*
G01X12283Y-24037D01*
G01X12281Y-24020D01*
G01X12280Y-24003D01*
G01X12246D01*
G01X12248Y-24023D01*
G01X12250Y-24043D01*
G01X12256Y-24062D01*
G01X12262Y-24081D01*
G01X12271Y-24098D01*
G01X12281Y-24114D01*
G01X12292Y-24130D01*
G01X12305Y-24144D01*
G01X12319Y-24157D01*
G01X12335Y-24168D01*
G01X12351Y-24178D01*
G01X12368Y-24187D01*
G01X12387Y-24193D01*
G01X12406Y-24199D01*
G01X12426Y-24201D01*
G01X12446Y-24202D01*
G01X12466Y-24201D01*
G01X12486Y-24199D01*
G01X12505Y-24193D01*
G01X12524Y-24187D01*
G01X12541Y-24178D01*
G01X12557Y-24168D01*
G01X12573Y-24157D01*
G01X12587Y-24144D01*
G01X12600Y-24130D01*
G01X12611Y-24114D01*
G01X12621Y-24098D01*
G01X12630Y-24081D01*
G01X12637Y-24062D01*
G01X12642Y-24043D01*
G01X12644Y-24023D01*
G01X12646Y-24003D01*
G01X12644Y-23983D01*
G01X12642Y-23963D01*
G01X12637Y-23944D01*
G01X12630Y-23925D01*
G01X12621Y-23908D01*
G01X12611Y-23892D01*
G01X12600Y-23876D01*
G01X12587Y-23862D01*
G01X12573Y-23849D01*
G01X12557Y-23838D01*
G01X12541Y-23828D01*
G01X12524Y-23819D01*
G01X12505Y-23812D01*
G01X12486Y-23807D01*
G01X12466Y-23805D01*
G37*
G36*
G01X20066Y-23803D02*
G01X20046Y-23805D01*
G01X20026Y-23807D01*
G01X20007Y-23812D01*
G01X19988Y-23819D01*
G01X19971Y-23828D01*
G01X19955Y-23838D01*
G01X19939Y-23849D01*
G01X19925Y-23862D01*
G01X19912Y-23876D01*
G01X19901Y-23892D01*
G01X19891Y-23908D01*
G01X19882Y-23925D01*
G01X19876Y-23944D01*
G01X19870Y-23963D01*
G01X19868Y-23983D01*
G01X19867Y-24003D01*
G01X19900D01*
G01X19901Y-23986D01*
G01X19903Y-23969D01*
G01X19908Y-23954D01*
G01X19913Y-23938D01*
G01X19920Y-23924D01*
G01X19928Y-23910D01*
G01X19938Y-23897D01*
G01X19949Y-23886D01*
G01X19960Y-23875D01*
G01X19973Y-23865D01*
G01X19987Y-23857D01*
G01X20001Y-23850D01*
G01X20017Y-23845D01*
G01X20032Y-23840D01*
G01X20049Y-23838D01*
G01X20066Y-23837D01*
G01X20083Y-23838D01*
G01X20100Y-23840D01*
G01X20115Y-23845D01*
G01X20131Y-23850D01*
G01X20145Y-23857D01*
G01X20159Y-23865D01*
G01X20172Y-23875D01*
G01X20183Y-23886D01*
G01X20194Y-23897D01*
G01X20204Y-23910D01*
G01X20212Y-23924D01*
G01X20219Y-23938D01*
G01X20224Y-23954D01*
G01X20229Y-23969D01*
G01X20231Y-23986D01*
G01X20232Y-24003D01*
G01X20231Y-24020D01*
G01X20229Y-24037D01*
G01X20224Y-24052D01*
G01X20219Y-24068D01*
G01X20212Y-24082D01*
G01X20204Y-24096D01*
G01X20194Y-24109D01*
G01X20183Y-24120D01*
G01X20172Y-24131D01*
G01X20159Y-24141D01*
G01X20145Y-24149D01*
G01X20131Y-24156D01*
G01X20115Y-24161D01*
G01X20100Y-24166D01*
G01X20083Y-24168D01*
G01X20066Y-24169D01*
G01X20049Y-24168D01*
G01X20032Y-24166D01*
G01X20017Y-24161D01*
G01X20001Y-24156D01*
G01X19987Y-24149D01*
G01X19973Y-24141D01*
G01X19960Y-24131D01*
G01X19949Y-24120D01*
G01X19938Y-24109D01*
G01X19928Y-24096D01*
G01X19920Y-24082D01*
G01X19913Y-24068D01*
G01X19908Y-24052D01*
G01X19903Y-24037D01*
G01X19901Y-24020D01*
G01X19900Y-24003D01*
G01X19867D01*
G01X19868Y-24023D01*
G01X19870Y-24043D01*
G01X19876Y-24062D01*
G01X19882Y-24081D01*
G01X19891Y-24098D01*
G01X19901Y-24114D01*
G01X19912Y-24130D01*
G01X19925Y-24144D01*
G01X19939Y-24157D01*
G01X19955Y-24168D01*
G01X19971Y-24178D01*
G01X19988Y-24187D01*
G01X20007Y-24193D01*
G01X20026Y-24199D01*
G01X20046Y-24201D01*
G01X20066Y-24202D01*
G01X20086Y-24201D01*
G01X20106Y-24199D01*
G01X20125Y-24193D01*
G01X20144Y-24187D01*
G01X20161Y-24178D01*
G01X20177Y-24168D01*
G01X20193Y-24157D01*
G01X20207Y-24144D01*
G01X20220Y-24130D01*
G01X20231Y-24114D01*
G01X20241Y-24098D01*
G01X20250Y-24081D01*
G01X20257Y-24062D01*
G01X20262Y-24043D01*
G01X20264Y-24023D01*
G01X20266Y-24003D01*
G01X20264Y-23983D01*
G01X20262Y-23963D01*
G01X20257Y-23944D01*
G01X20250Y-23925D01*
G01X20241Y-23908D01*
G01X20231Y-23892D01*
G01X20220Y-23876D01*
G01X20207Y-23862D01*
G01X20193Y-23849D01*
G01X20177Y-23838D01*
G01X20161Y-23828D01*
G01X20144Y-23819D01*
G01X20125Y-23812D01*
G01X20106Y-23807D01*
G01X20086Y-23805D01*
G37*
G36*
G01X20066Y-26343D02*
G01X20046Y-26345D01*
G01X20026Y-26347D01*
G01X20007Y-26352D01*
G01X19988Y-26359D01*
G01X19971Y-26368D01*
G01X19955Y-26378D01*
G01X19939Y-26389D01*
G01X19925Y-26402D01*
G01X19912Y-26416D01*
G01X19901Y-26432D01*
G01X19891Y-26448D01*
G01X19882Y-26465D01*
G01X19876Y-26484D01*
G01X19870Y-26503D01*
G01X19868Y-26523D01*
G01X19867Y-26543D01*
G01X19900D01*
G01X19901Y-26526D01*
G01X19903Y-26509D01*
G01X19908Y-26494D01*
G01X19913Y-26478D01*
G01X19920Y-26464D01*
G01X19928Y-26450D01*
G01X19938Y-26437D01*
G01X19949Y-26426D01*
G01X19960Y-26415D01*
G01X19973Y-26405D01*
G01X19987Y-26397D01*
G01X20001Y-26390D01*
G01X20017Y-26385D01*
G01X20032Y-26380D01*
G01X20049Y-26378D01*
G01X20066Y-26377D01*
G01X20083Y-26378D01*
G01X20100Y-26380D01*
G01X20115Y-26385D01*
G01X20131Y-26390D01*
G01X20145Y-26397D01*
G01X20159Y-26405D01*
G01X20172Y-26415D01*
G01X20183Y-26426D01*
G01X20194Y-26437D01*
G01X20204Y-26450D01*
G01X20212Y-26464D01*
G01X20219Y-26478D01*
G01X20224Y-26494D01*
G01X20229Y-26509D01*
G01X20231Y-26526D01*
G01X20232Y-26543D01*
G01X20231Y-26560D01*
G01X20229Y-26577D01*
G01X20224Y-26592D01*
G01X20219Y-26608D01*
G01X20212Y-26622D01*
G01X20204Y-26636D01*
G01X20194Y-26649D01*
G01X20183Y-26660D01*
G01X20172Y-26671D01*
G01X20159Y-26681D01*
G01X20145Y-26689D01*
G01X20131Y-26696D01*
G01X20115Y-26701D01*
G01X20100Y-26706D01*
G01X20083Y-26708D01*
G01X20066Y-26709D01*
G01X20049Y-26708D01*
G01X20032Y-26706D01*
G01X20017Y-26701D01*
G01X20001Y-26696D01*
G01X19987Y-26689D01*
G01X19973Y-26681D01*
G01X19960Y-26671D01*
G01X19949Y-26660D01*
G01X19938Y-26649D01*
G01X19928Y-26636D01*
G01X19920Y-26622D01*
G01X19913Y-26608D01*
G01X19908Y-26592D01*
G01X19903Y-26577D01*
G01X19901Y-26560D01*
G01X19900Y-26543D01*
G01X19867D01*
G01X19868Y-26563D01*
G01X19870Y-26583D01*
G01X19876Y-26602D01*
G01X19882Y-26621D01*
G01X19891Y-26638D01*
G01X19901Y-26654D01*
G01X19912Y-26670D01*
G01X19925Y-26684D01*
G01X19939Y-26697D01*
G01X19955Y-26708D01*
G01X19971Y-26718D01*
G01X19988Y-26727D01*
G01X20007Y-26733D01*
G01X20026Y-26739D01*
G01X20046Y-26741D01*
G01X20066Y-26742D01*
G01X20086Y-26741D01*
G01X20106Y-26739D01*
G01X20125Y-26733D01*
G01X20144Y-26727D01*
G01X20161Y-26718D01*
G01X20177Y-26708D01*
G01X20193Y-26697D01*
G01X20207Y-26684D01*
G01X20220Y-26670D01*
G01X20231Y-26654D01*
G01X20241Y-26638D01*
G01X20250Y-26621D01*
G01X20257Y-26602D01*
G01X20262Y-26583D01*
G01X20264Y-26563D01*
G01X20266Y-26543D01*
G01X20264Y-26523D01*
G01X20262Y-26503D01*
G01X20257Y-26484D01*
G01X20250Y-26465D01*
G01X20241Y-26448D01*
G01X20231Y-26432D01*
G01X20220Y-26416D01*
G01X20207Y-26402D01*
G01X20193Y-26389D01*
G01X20177Y-26378D01*
G01X20161Y-26368D01*
G01X20144Y-26359D01*
G01X20125Y-26352D01*
G01X20106Y-26347D01*
G01X20086Y-26345D01*
G37*
G36*
G01X17526Y-23803D02*
G01X17506Y-23805D01*
G01X17486Y-23807D01*
G01X17467Y-23812D01*
G01X17448Y-23819D01*
G01X17431Y-23828D01*
G01X17415Y-23838D01*
G01X17399Y-23849D01*
G01X17385Y-23862D01*
G01X17372Y-23876D01*
G01X17361Y-23892D01*
G01X17351Y-23908D01*
G01X17342Y-23925D01*
G01X17336Y-23944D01*
G01X17330Y-23963D01*
G01X17328Y-23983D01*
G01X17327Y-24003D01*
G01X17360D01*
G01X17361Y-23986D01*
G01X17363Y-23969D01*
G01X17368Y-23954D01*
G01X17373Y-23938D01*
G01X17380Y-23924D01*
G01X17388Y-23910D01*
G01X17398Y-23897D01*
G01X17409Y-23886D01*
G01X17420Y-23875D01*
G01X17433Y-23865D01*
G01X17447Y-23857D01*
G01X17461Y-23850D01*
G01X17477Y-23845D01*
G01X17492Y-23840D01*
G01X17509Y-23838D01*
G01X17526Y-23837D01*
G01X17543Y-23838D01*
G01X17560Y-23840D01*
G01X17575Y-23845D01*
G01X17591Y-23850D01*
G01X17605Y-23857D01*
G01X17619Y-23865D01*
G01X17632Y-23875D01*
G01X17643Y-23886D01*
G01X17654Y-23897D01*
G01X17664Y-23910D01*
G01X17672Y-23924D01*
G01X17679Y-23938D01*
G01X17684Y-23954D01*
G01X17689Y-23969D01*
G01X17691Y-23986D01*
G01X17692Y-24003D01*
G01X17691Y-24020D01*
G01X17689Y-24037D01*
G01X17684Y-24052D01*
G01X17679Y-24068D01*
G01X17672Y-24082D01*
G01X17664Y-24096D01*
G01X17654Y-24109D01*
G01X17643Y-24120D01*
G01X17632Y-24131D01*
G01X17619Y-24141D01*
G01X17605Y-24149D01*
G01X17591Y-24156D01*
G01X17575Y-24161D01*
G01X17560Y-24166D01*
G01X17543Y-24168D01*
G01X17526Y-24169D01*
G01X17509Y-24168D01*
G01X17492Y-24166D01*
G01X17477Y-24161D01*
G01X17461Y-24156D01*
G01X17447Y-24149D01*
G01X17433Y-24141D01*
G01X17420Y-24131D01*
G01X17409Y-24120D01*
G01X17398Y-24109D01*
G01X17388Y-24096D01*
G01X17380Y-24082D01*
G01X17373Y-24068D01*
G01X17368Y-24052D01*
G01X17363Y-24037D01*
G01X17361Y-24020D01*
G01X17360Y-24003D01*
G01X17327D01*
G01X17328Y-24023D01*
G01X17330Y-24043D01*
G01X17336Y-24062D01*
G01X17342Y-24081D01*
G01X17351Y-24098D01*
G01X17361Y-24114D01*
G01X17372Y-24130D01*
G01X17385Y-24144D01*
G01X17399Y-24157D01*
G01X17415Y-24168D01*
G01X17431Y-24178D01*
G01X17448Y-24187D01*
G01X17467Y-24193D01*
G01X17486Y-24199D01*
G01X17506Y-24201D01*
G01X17526Y-24202D01*
G01X17546Y-24201D01*
G01X17566Y-24199D01*
G01X17585Y-24193D01*
G01X17604Y-24187D01*
G01X17621Y-24178D01*
G01X17637Y-24168D01*
G01X17653Y-24157D01*
G01X17667Y-24144D01*
G01X17680Y-24130D01*
G01X17691Y-24114D01*
G01X17701Y-24098D01*
G01X17710Y-24081D01*
G01X17717Y-24062D01*
G01X17722Y-24043D01*
G01X17724Y-24023D01*
G01X17726Y-24003D01*
G01X17724Y-23983D01*
G01X17722Y-23963D01*
G01X17717Y-23944D01*
G01X17710Y-23925D01*
G01X17701Y-23908D01*
G01X17691Y-23892D01*
G01X17680Y-23876D01*
G01X17667Y-23862D01*
G01X17653Y-23849D01*
G01X17637Y-23838D01*
G01X17621Y-23828D01*
G01X17604Y-23819D01*
G01X17585Y-23812D01*
G01X17566Y-23807D01*
G01X17546Y-23805D01*
G37*
G36*
G01X17526Y-26343D02*
G01X17506Y-26345D01*
G01X17486Y-26347D01*
G01X17467Y-26352D01*
G01X17448Y-26359D01*
G01X17431Y-26368D01*
G01X17415Y-26378D01*
G01X17399Y-26389D01*
G01X17385Y-26402D01*
G01X17372Y-26416D01*
G01X17361Y-26432D01*
G01X17351Y-26448D01*
G01X17342Y-26465D01*
G01X17336Y-26484D01*
G01X17330Y-26503D01*
G01X17328Y-26523D01*
G01X17327Y-26543D01*
G01X17360D01*
G01X17361Y-26526D01*
G01X17363Y-26509D01*
G01X17368Y-26494D01*
G01X17373Y-26478D01*
G01X17380Y-26464D01*
G01X17388Y-26450D01*
G01X17398Y-26437D01*
G01X17409Y-26426D01*
G01X17420Y-26415D01*
G01X17433Y-26405D01*
G01X17447Y-26397D01*
G01X17461Y-26390D01*
G01X17477Y-26385D01*
G01X17492Y-26380D01*
G01X17509Y-26378D01*
G01X17526Y-26377D01*
G01X17543Y-26378D01*
G01X17560Y-26380D01*
G01X17575Y-26385D01*
G01X17591Y-26390D01*
G01X17605Y-26397D01*
G01X17619Y-26405D01*
G01X17632Y-26415D01*
G01X17643Y-26426D01*
G01X17654Y-26437D01*
G01X17664Y-26450D01*
G01X17672Y-26464D01*
G01X17679Y-26478D01*
G01X17684Y-26494D01*
G01X17689Y-26509D01*
G01X17691Y-26526D01*
G01X17692Y-26543D01*
G01X17691Y-26560D01*
G01X17689Y-26577D01*
G01X17684Y-26592D01*
G01X17679Y-26608D01*
G01X17672Y-26622D01*
G01X17664Y-26636D01*
G01X17654Y-26649D01*
G01X17643Y-26660D01*
G01X17632Y-26671D01*
G01X17619Y-26681D01*
G01X17605Y-26689D01*
G01X17591Y-26696D01*
G01X17575Y-26701D01*
G01X17560Y-26706D01*
G01X17543Y-26708D01*
G01X17526Y-26709D01*
G01X17509Y-26708D01*
G01X17492Y-26706D01*
G01X17477Y-26701D01*
G01X17461Y-26696D01*
G01X17447Y-26689D01*
G01X17433Y-26681D01*
G01X17420Y-26671D01*
G01X17409Y-26660D01*
G01X17398Y-26649D01*
G01X17388Y-26636D01*
G01X17380Y-26622D01*
G01X17373Y-26608D01*
G01X17368Y-26592D01*
G01X17363Y-26577D01*
G01X17361Y-26560D01*
G01X17360Y-26543D01*
G01X17327D01*
G01X17328Y-26563D01*
G01X17330Y-26583D01*
G01X17336Y-26602D01*
G01X17342Y-26621D01*
G01X17351Y-26638D01*
G01X17361Y-26654D01*
G01X17372Y-26670D01*
G01X17385Y-26684D01*
G01X17399Y-26697D01*
G01X17415Y-26708D01*
G01X17431Y-26718D01*
G01X17448Y-26727D01*
G01X17467Y-26733D01*
G01X17486Y-26739D01*
G01X17506Y-26741D01*
G01X17526Y-26742D01*
G01X17546Y-26741D01*
G01X17566Y-26739D01*
G01X17585Y-26733D01*
G01X17604Y-26727D01*
G01X17621Y-26718D01*
G01X17637Y-26708D01*
G01X17653Y-26697D01*
G01X17667Y-26684D01*
G01X17680Y-26670D01*
G01X17691Y-26654D01*
G01X17701Y-26638D01*
G01X17710Y-26621D01*
G01X17717Y-26602D01*
G01X17722Y-26583D01*
G01X17724Y-26563D01*
G01X17726Y-26543D01*
G01X17724Y-26523D01*
G01X17722Y-26503D01*
G01X17717Y-26484D01*
G01X17710Y-26465D01*
G01X17701Y-26448D01*
G01X17691Y-26432D01*
G01X17680Y-26416D01*
G01X17667Y-26402D01*
G01X17653Y-26389D01*
G01X17637Y-26378D01*
G01X17621Y-26368D01*
G01X17604Y-26359D01*
G01X17585Y-26352D01*
G01X17566Y-26347D01*
G01X17546Y-26345D01*
G37*
G36*
G01X14986Y-23803D02*
G01X14966Y-23805D01*
G01X14946Y-23807D01*
G01X14927Y-23812D01*
G01X14908Y-23819D01*
G01X14891Y-23828D01*
G01X14875Y-23838D01*
G01X14859Y-23849D01*
G01X14845Y-23862D01*
G01X14832Y-23876D01*
G01X14821Y-23892D01*
G01X14811Y-23908D01*
G01X14802Y-23925D01*
G01X14796Y-23944D01*
G01X14790Y-23963D01*
G01X14788Y-23983D01*
G01X14786Y-24003D01*
G01X14820D01*
G01X14821Y-23986D01*
G01X14823Y-23969D01*
G01X14828Y-23954D01*
G01X14833Y-23938D01*
G01X14840Y-23924D01*
G01X14848Y-23910D01*
G01X14858Y-23897D01*
G01X14869Y-23886D01*
G01X14880Y-23875D01*
G01X14893Y-23865D01*
G01X14907Y-23857D01*
G01X14921Y-23850D01*
G01X14937Y-23845D01*
G01X14952Y-23840D01*
G01X14969Y-23838D01*
G01X14986Y-23837D01*
G01X15003Y-23838D01*
G01X15020Y-23840D01*
G01X15035Y-23845D01*
G01X15051Y-23850D01*
G01X15065Y-23857D01*
G01X15079Y-23865D01*
G01X15092Y-23875D01*
G01X15103Y-23886D01*
G01X15114Y-23897D01*
G01X15124Y-23910D01*
G01X15132Y-23924D01*
G01X15139Y-23938D01*
G01X15144Y-23954D01*
G01X15149Y-23969D01*
G01X15151Y-23986D01*
G01X15152Y-24003D01*
G01X15151Y-24020D01*
G01X15149Y-24037D01*
G01X15144Y-24052D01*
G01X15139Y-24068D01*
G01X15132Y-24082D01*
G01X15124Y-24096D01*
G01X15114Y-24109D01*
G01X15103Y-24120D01*
G01X15092Y-24131D01*
G01X15079Y-24141D01*
G01X15065Y-24149D01*
G01X15051Y-24156D01*
G01X15035Y-24161D01*
G01X15020Y-24166D01*
G01X15003Y-24168D01*
G01X14986Y-24169D01*
G01X14969Y-24168D01*
G01X14952Y-24166D01*
G01X14937Y-24161D01*
G01X14921Y-24156D01*
G01X14907Y-24149D01*
G01X14893Y-24141D01*
G01X14880Y-24131D01*
G01X14869Y-24120D01*
G01X14858Y-24109D01*
G01X14848Y-24096D01*
G01X14840Y-24082D01*
G01X14833Y-24068D01*
G01X14828Y-24052D01*
G01X14823Y-24037D01*
G01X14821Y-24020D01*
G01X14820Y-24003D01*
G01X14786D01*
G01X14788Y-24023D01*
G01X14790Y-24043D01*
G01X14796Y-24062D01*
G01X14802Y-24081D01*
G01X14811Y-24098D01*
G01X14821Y-24114D01*
G01X14832Y-24130D01*
G01X14845Y-24144D01*
G01X14859Y-24157D01*
G01X14875Y-24168D01*
G01X14891Y-24178D01*
G01X14908Y-24187D01*
G01X14927Y-24193D01*
G01X14946Y-24199D01*
G01X14966Y-24201D01*
G01X14986Y-24202D01*
G01X15006Y-24201D01*
G01X15026Y-24199D01*
G01X15045Y-24193D01*
G01X15064Y-24187D01*
G01X15081Y-24178D01*
G01X15097Y-24168D01*
G01X15113Y-24157D01*
G01X15127Y-24144D01*
G01X15140Y-24130D01*
G01X15151Y-24114D01*
G01X15161Y-24098D01*
G01X15170Y-24081D01*
G01X15177Y-24062D01*
G01X15182Y-24043D01*
G01X15184Y-24023D01*
G01X15186Y-24003D01*
G01X15184Y-23983D01*
G01X15182Y-23963D01*
G01X15177Y-23944D01*
G01X15170Y-23925D01*
G01X15161Y-23908D01*
G01X15151Y-23892D01*
G01X15140Y-23876D01*
G01X15127Y-23862D01*
G01X15113Y-23849D01*
G01X15097Y-23838D01*
G01X15081Y-23828D01*
G01X15064Y-23819D01*
G01X15045Y-23812D01*
G01X15026Y-23807D01*
G01X15006Y-23805D01*
G37*
G36*
G01X14986Y-26343D02*
G01X14966Y-26345D01*
G01X14946Y-26347D01*
G01X14927Y-26352D01*
G01X14908Y-26359D01*
G01X14891Y-26368D01*
G01X14875Y-26378D01*
G01X14859Y-26389D01*
G01X14845Y-26402D01*
G01X14832Y-26416D01*
G01X14821Y-26432D01*
G01X14811Y-26448D01*
G01X14802Y-26465D01*
G01X14796Y-26484D01*
G01X14790Y-26503D01*
G01X14788Y-26523D01*
G01X14786Y-26543D01*
G01X14820D01*
G01X14821Y-26526D01*
G01X14823Y-26509D01*
G01X14828Y-26494D01*
G01X14833Y-26478D01*
G01X14840Y-26464D01*
G01X14848Y-26450D01*
G01X14858Y-26437D01*
G01X14869Y-26426D01*
G01X14880Y-26415D01*
G01X14893Y-26405D01*
G01X14907Y-26397D01*
G01X14921Y-26390D01*
G01X14937Y-26385D01*
G01X14952Y-26380D01*
G01X14969Y-26378D01*
G01X14986Y-26377D01*
G01X15003Y-26378D01*
G01X15020Y-26380D01*
G01X15035Y-26385D01*
G01X15051Y-26390D01*
G01X15065Y-26397D01*
G01X15079Y-26405D01*
G01X15092Y-26415D01*
G01X15103Y-26426D01*
G01X15114Y-26437D01*
G01X15124Y-26450D01*
G01X15132Y-26464D01*
G01X15139Y-26478D01*
G01X15144Y-26494D01*
G01X15149Y-26509D01*
G01X15151Y-26526D01*
G01X15152Y-26543D01*
G01X15151Y-26560D01*
G01X15149Y-26577D01*
G01X15144Y-26592D01*
G01X15139Y-26608D01*
G01X15132Y-26622D01*
G01X15124Y-26636D01*
G01X15114Y-26649D01*
G01X15103Y-26660D01*
G01X15092Y-26671D01*
G01X15079Y-26681D01*
G01X15065Y-26689D01*
G01X15051Y-26696D01*
G01X15035Y-26701D01*
G01X15020Y-26706D01*
G01X15003Y-26708D01*
G01X14986Y-26709D01*
G01X14969Y-26708D01*
G01X14952Y-26706D01*
G01X14937Y-26701D01*
G01X14921Y-26696D01*
G01X14907Y-26689D01*
G01X14893Y-26681D01*
G01X14880Y-26671D01*
G01X14869Y-26660D01*
G01X14858Y-26649D01*
G01X14848Y-26636D01*
G01X14840Y-26622D01*
G01X14833Y-26608D01*
G01X14828Y-26592D01*
G01X14823Y-26577D01*
G01X14821Y-26560D01*
G01X14820Y-26543D01*
G01X14786D01*
G01X14788Y-26563D01*
G01X14790Y-26583D01*
G01X14796Y-26602D01*
G01X14802Y-26621D01*
G01X14811Y-26638D01*
G01X14821Y-26654D01*
G01X14832Y-26670D01*
G01X14845Y-26684D01*
G01X14859Y-26697D01*
G01X14875Y-26708D01*
G01X14891Y-26718D01*
G01X14908Y-26727D01*
G01X14927Y-26733D01*
G01X14946Y-26739D01*
G01X14966Y-26741D01*
G01X14986Y-26742D01*
G01X15006Y-26741D01*
G01X15026Y-26739D01*
G01X15045Y-26733D01*
G01X15064Y-26727D01*
G01X15081Y-26718D01*
G01X15097Y-26708D01*
G01X15113Y-26697D01*
G01X15127Y-26684D01*
G01X15140Y-26670D01*
G01X15151Y-26654D01*
G01X15161Y-26638D01*
G01X15170Y-26621D01*
G01X15177Y-26602D01*
G01X15182Y-26583D01*
G01X15184Y-26563D01*
G01X15186Y-26543D01*
G01X15184Y-26523D01*
G01X15182Y-26503D01*
G01X15177Y-26484D01*
G01X15170Y-26465D01*
G01X15161Y-26448D01*
G01X15151Y-26432D01*
G01X15140Y-26416D01*
G01X15127Y-26402D01*
G01X15113Y-26389D01*
G01X15097Y-26378D01*
G01X15081Y-26368D01*
G01X15064Y-26359D01*
G01X15045Y-26352D01*
G01X15026Y-26347D01*
G01X15006Y-26345D01*
G37*
G36*
G01X3865Y-6750D02*
G01X3884Y-6784D01*
G01X3922D01*
G01X4206D01*
G01X4135Y-6906D01*
G01X4064Y-7029D01*
G01X3993Y-6906D01*
G01X3922Y-6784D01*
G01X3884D01*
G01X4064Y-7096D01*
G01X4164Y-6923D01*
G01X4264Y-6750D01*
G37*
G36*
G01X3810Y-3248D02*
G01X3829Y-3281D01*
G01X3867D01*
G01X4151D01*
G01X4080Y-3404D01*
G01X4009Y-3527D01*
G01X3938Y-3404D01*
G01X3867Y-3281D01*
G01X3829D01*
G01X4009Y-3593D01*
G01X4109Y-3420D01*
G01X4209Y-3248D01*
G37*
G36*
G01X17501Y-18496D02*
G01X17520Y-18530D01*
G01X17558D01*
G01X17842D01*
G01X17771Y-18652D01*
G01X17700Y-18775D01*
G01X17629Y-18652D01*
G01X17558Y-18530D01*
G01X17520D01*
G01X17600Y-18669D01*
G01X17700Y-18842D01*
G01X17899Y-18496D01*
G37*
G36*
G01X17501Y-17226D02*
G01X17520Y-17260D01*
G01X17558D01*
G01X17842D01*
G01X17771Y-17382D01*
G01X17700Y-17505D01*
G01X17629Y-17382D01*
G01X17558Y-17260D01*
G01X17520D01*
G01X17600Y-17399D01*
G01X17700Y-17572D01*
G01X17899Y-17226D01*
G37*
G36*
G01X1171Y-25546D02*
G01X1191Y-25580D01*
G01X1229D01*
G01X1513D01*
G01X1442Y-25702D01*
G01X1371Y-25825D01*
G01X1300Y-25702D01*
G01X1229Y-25580D01*
G01X1191D01*
G01X1271Y-25719D01*
G01X1371Y-25892D01*
G01X1570Y-25546D01*
G37*
G36*
G01X4272Y-24146D02*
G01X4291Y-24180D01*
G01X4329D01*
G01X4613D01*
G01X4542Y-24302D01*
G01X4471Y-24425D01*
G01X4400Y-24302D01*
G01X4329Y-24180D01*
G01X4291D01*
G01X4371Y-24319D01*
G01X4471Y-24492D01*
G01X4671Y-24146D01*
G37*
G36*
G01X1171Y-24146D02*
G01X1191Y-24180D01*
G01X1229D01*
G01X1513D01*
G01X1442Y-24302D01*
G01X1371Y-24425D01*
G01X1300Y-24302D01*
G01X1229Y-24180D01*
G01X1191D01*
G01X1271Y-24319D01*
G01X1371Y-24492D01*
G01X1570Y-24146D01*
G37*
G36*
G01X4272Y-25546D02*
G01X4291Y-25580D01*
G01X4329D01*
G01X4613D01*
G01X4542Y-25702D01*
G01X4471Y-25825D01*
G01X4400Y-25702D01*
G01X4329Y-25580D01*
G01X4291D01*
G01X4371Y-25719D01*
G01X4471Y-25892D01*
G01X4671Y-25546D01*
G37*
G36*
G01X4999Y-17480D02*
G01X5019Y-17514D01*
G01X5057D01*
G01X5340D01*
G01X5269Y-17636D01*
G01X5198Y-17759D01*
G01X5127Y-17636D01*
G01X5057Y-17514D01*
G01X5019D01*
G01X5198Y-17826D01*
G01X5298Y-17653D01*
G01X5398Y-17480D01*
G37*
G36*
G01X3493Y-17480D02*
G01X3512Y-17514D01*
G01X3550D01*
G01X3833D01*
G01X3763Y-17636D01*
G01X3692Y-17759D01*
G01X3621Y-17636D01*
G01X3550Y-17514D01*
G01X3512D01*
G01X3692Y-17826D01*
G01X3791Y-17653D01*
G01X3891Y-17480D01*
G37*
G36*
G01X3493Y-19639D02*
G01X3512Y-19673D01*
G01X3550D01*
G01X3833D01*
G01X3763Y-19795D01*
G01X3692Y-19918D01*
G01X3621Y-19795D01*
G01X3550Y-19673D01*
G01X3512D01*
G01X3692Y-19985D01*
G01X3791Y-19812D01*
G01X3891Y-19639D01*
G37*
G36*
G01X4999Y-19639D02*
G01X5019Y-19673D01*
G01X5057D01*
G01X5340D01*
G01X5269Y-19795D01*
G01X5198Y-19918D01*
G01X5127Y-19795D01*
G01X5057Y-19673D01*
G01X5019D01*
G01X5198Y-19985D01*
G01X5298Y-19812D01*
G01X5398Y-19639D01*
G37*
G36*
G01X4999Y-21798D02*
G01X5019Y-21832D01*
G01X5057D01*
G01X5340D01*
G01X5269Y-21954D01*
G01X5198Y-22077D01*
G01X5127Y-21954D01*
G01X5057Y-21832D01*
G01X5019D01*
G01X5198Y-22144D01*
G01X5298Y-21971D01*
G01X5398Y-21798D01*
G37*
G36*
G01X3493Y-21798D02*
G01X3512Y-21832D01*
G01X3550D01*
G01X3833D01*
G01X3763Y-21954D01*
G01X3692Y-22077D01*
G01X3621Y-21954D01*
G01X3550Y-21832D01*
G01X3512D01*
G01X3692Y-22144D01*
G01X3791Y-21971D01*
G01X3891Y-21798D01*
G37*
G36*
G01X11992Y-17480D02*
G01X12012Y-17514D01*
G01X12050D01*
G01X12334D01*
G01X12263Y-17636D01*
G01X12192Y-17759D01*
G01X12121Y-17636D01*
G01X12050Y-17514D01*
G01X12012D01*
G01X12092Y-17653D01*
G01X12192Y-17826D01*
G01X12292Y-17653D01*
G01X12392Y-17480D01*
G37*
G36*
G01X12754Y-17480D02*
G01X12774Y-17514D01*
G01X12812D01*
G01X13096D01*
G01X13025Y-17636D01*
G01X12954Y-17759D01*
G01X12883Y-17636D01*
G01X12812Y-17514D01*
G01X12774D01*
G01X12854Y-17653D01*
G01X12954Y-17826D01*
G01X13054Y-17653D01*
G01X13154Y-17480D01*
G37*
G36*
G01X13516Y-17480D02*
G01X13536Y-17514D01*
G01X13574D01*
G01X13858D01*
G01X13787Y-17636D01*
G01X13716Y-17759D01*
G01X13645Y-17636D01*
G01X13574Y-17514D01*
G01X13536D01*
G01X13616Y-17653D01*
G01X13716Y-17826D01*
G01X13816Y-17653D01*
G01X13916Y-17480D01*
G37*
G36*
G01X17501Y-19766D02*
G01X17520Y-19800D01*
G01X17558D01*
G01X17842D01*
G01X17771Y-19922D01*
G01X17700Y-20045D01*
G01X17629Y-19922D01*
G01X17558Y-19800D01*
G01X17520D01*
G01X17600Y-19939D01*
G01X17700Y-20112D01*
G01X17899Y-19766D01*
G37*
G36*
G01X17501Y-21036D02*
G01X17520Y-21070D01*
G01X17558D01*
G01X17842D01*
G01X17771Y-21192D01*
G01X17700Y-21315D01*
G01X17629Y-21192D01*
G01X17558Y-21070D01*
G01X17520D01*
G01X17600Y-21209D01*
G01X17700Y-21382D01*
G01X17899Y-21036D01*
G37*
G36*
G01X7501Y-18496D02*
G01X7520Y-18530D01*
G01X7558D01*
G01X7842D01*
G01X7771Y-18652D01*
G01X7700Y-18775D01*
G01X7629Y-18652D01*
G01X7558Y-18530D01*
G01X7520D01*
G01X7700Y-18842D01*
G01X7800Y-18669D01*
G01X7899Y-18496D01*
G37*
G36*
G01X7548Y-13416D02*
G01X7567Y-13450D01*
G01X7605D01*
G01X7889D01*
G01X7818Y-13572D01*
G01X7747Y-13695D01*
G01X7676Y-13572D01*
G01X7605Y-13450D01*
G01X7567D01*
G01X7747Y-13762D01*
G01X7847Y-13589D01*
G01X7947Y-13416D01*
G37*
G36*
G01X7548Y-14686D02*
G01X7567Y-14720D01*
G01X7605D01*
G01X7889D01*
G01X7818Y-14842D01*
G01X7747Y-14965D01*
G01X7676Y-14842D01*
G01X7605Y-14720D01*
G01X7567D01*
G01X7747Y-15032D01*
G01X7847Y-14859D01*
G01X7947Y-14686D01*
G37*
G36*
G01X10341Y-19004D02*
G01X10361Y-19038D01*
G01X10399D01*
G01X10683D01*
G01X10612Y-19160D01*
G01X10541Y-19283D01*
G01X10470Y-19160D01*
G01X10399Y-19038D01*
G01X10361D01*
G01X10441Y-19177D01*
G01X10541Y-19350D01*
G01X10641Y-19177D01*
G01X10741Y-19004D01*
G37*
G36*
G01X9579Y-5161D02*
G01X9599Y-5195D01*
G01X9637D01*
G01X9921D01*
G01X9850Y-5317D01*
G01X9779Y-5440D01*
G01X9708Y-5317D01*
G01X9637Y-5195D01*
G01X9599D01*
G01X9679Y-5334D01*
G01X9779Y-5507D01*
G01X9879Y-5334D01*
G01X9979Y-5161D01*
G37*
G36*
G01X22661Y-4300D02*
G01X22680Y-4334D01*
G01X22718D01*
G01X23002D01*
G01X22931Y-4456D01*
G01X22860Y-4579D01*
G01X22789Y-4456D01*
G01X22718Y-4334D01*
G01X22680D01*
G01X22860Y-4646D01*
G01X22960Y-4473D01*
G01X23060Y-4300D01*
G37*
G36*
G01X22670Y-7320D02*
G01X22689Y-7354D01*
G01X22727D01*
G01X23010D01*
G01X22940Y-7476D01*
G01X22869Y-7599D01*
G01X22798Y-7476D01*
G01X22727Y-7354D01*
G01X22689D01*
G01X22869Y-7666D01*
G01X22968Y-7493D01*
G01X23068Y-7320D01*
G37*
G36*
G01X17581Y-9606D02*
G01X17600Y-9640D01*
G01X17638D01*
G01X17922D01*
G01X17851Y-9762D01*
G01X17780Y-9885D01*
G01X17709Y-9762D01*
G01X17638Y-9640D01*
G01X17600D01*
G01X17780Y-9952D01*
G01X17880Y-9779D01*
G01X17980Y-9606D01*
G37*
G36*
G01X17550Y-7066D02*
G01X17570Y-7100D01*
G01X17608D01*
G01X17892D01*
G01X17821Y-7222D01*
G01X17750Y-7345D01*
G01X17679Y-7222D01*
G01X17608Y-7100D01*
G01X17570D01*
G01X17650Y-7239D01*
G01X17750Y-7412D01*
G01X17949Y-7066D01*
G37*
G36*
G01X21992Y-18623D02*
G01X22011Y-18657D01*
G01X22049D01*
G01X22333D01*
G01X22262Y-18779D01*
G01X22191Y-18902D01*
G01X22120Y-18779D01*
G01X22049Y-18657D01*
G01X22011D01*
G01X22191Y-18969D01*
G01X22291Y-18796D01*
G01X22391Y-18623D01*
G37*
G36*
G01X21438Y-15978D02*
G01X21457Y-16011D01*
G01X21496D01*
G01X21779D01*
G01X21708Y-16134D01*
G01X21638Y-16257D01*
G01X21567Y-16134D01*
G01X21496Y-16011D01*
G01X21457D01*
G01X21538Y-16150D01*
G01X21638Y-16323D01*
G01X21737Y-16150D01*
G01X21837Y-15978D01*
G37*
G36*
G01X26471Y-20020D02*
G01X26490Y-20054D01*
G01X26528D01*
G01X26812D01*
G01X26741Y-20176D01*
G01X26670Y-20299D01*
G01X26599Y-20176D01*
G01X26528Y-20054D01*
G01X26490D01*
G01X26670Y-20366D01*
G01X26770Y-20193D01*
G01X26870Y-20020D01*
G37*
G36*
G01X26471Y-21128D02*
G01X26490Y-21161D01*
G01X26528D01*
G01X26812D01*
G01X26741Y-21284D01*
G01X26670Y-21407D01*
G01X26599Y-21284D01*
G01X26528Y-21161D01*
G01X26490D01*
G01X26670Y-21473D01*
G01X26770Y-21300D01*
G01X26870Y-21128D01*
G37*
G36*
G01X26471Y-18938D02*
G01X26490Y-18971D01*
G01X26528D01*
G01X26812D01*
G01X26741Y-19094D01*
G01X26670Y-19217D01*
G01X26599Y-19094D01*
G01X26528Y-18971D01*
G01X26490D01*
G01X26670Y-19283D01*
G01X26770Y-19110D01*
G01X26870Y-18938D01*
G37*
G36*
G01X22534Y-12019D02*
G01X22553Y-12053D01*
G01X22591D01*
G01X22875D01*
G01X22804Y-12175D01*
G01X22733Y-12298D01*
G01X22662Y-12175D01*
G01X22591Y-12053D01*
G01X22553D01*
G01X22733Y-12365D01*
G01X22833Y-12192D01*
G01X22933Y-12019D01*
G37*
G36*
G01X22534Y-12781D02*
G01X22553Y-12815D01*
G01X22591D01*
G01X22875D01*
G01X22804Y-12937D01*
G01X22733Y-13060D01*
G01X22662Y-12937D01*
G01X22591Y-12815D01*
G01X22553D01*
G01X22733Y-13127D01*
G01X22833Y-12954D01*
G01X22933Y-12781D01*
G37*
G36*
G01X1071Y-17226D02*
G01X1090Y-17260D01*
G01X1128D01*
G01X1412D01*
G01X1341Y-17382D01*
G01X1270Y-17505D01*
G01X1199Y-17382D01*
G01X1128Y-17260D01*
G01X1090D01*
G01X1270Y-17572D01*
G01X1370Y-17399D01*
G01X1470Y-17226D01*
G37*
G36*
G01X1071Y-18750D02*
G01X1090Y-18784D01*
G01X1128D01*
G01X1412D01*
G01X1341Y-18906D01*
G01X1270Y-19029D01*
G01X1199Y-18906D01*
G01X1128Y-18784D01*
G01X1090D01*
G01X1270Y-19096D01*
G01X1370Y-18923D01*
G01X1470Y-18750D01*
G37*
G36*
G01X1071Y-20223D02*
G01X1090Y-20257D01*
G01X1128D01*
G01X1412D01*
G01X1341Y-20380D01*
G01X1270Y-20502D01*
G01X1199Y-20380D01*
G01X1128Y-20257D01*
G01X1090D01*
G01X1270Y-20569D01*
G01X1370Y-20396D01*
G01X1470Y-20223D01*
G37*
G36*
G01X24947Y-5796D02*
G01X24966Y-5830D01*
G01X25004D01*
G01X25288D01*
G01X25217Y-5952D01*
G01X25146Y-6075D01*
G01X25075Y-5952D01*
G01X25004Y-5830D01*
G01X24966D01*
G01X25146Y-6142D01*
G01X25246Y-5969D01*
G01X25346Y-5796D01*
G37*
G36*
G01X24185Y-5796D02*
G01X24204Y-5830D01*
G01X24242D01*
G01X24526D01*
G01X24455Y-5952D01*
G01X24384Y-6075D01*
G01X24313Y-5952D01*
G01X24242Y-5830D01*
G01X24204D01*
G01X24384Y-6142D01*
G01X24484Y-5969D01*
G01X24584Y-5796D01*
G37*
G36*
G01X25709Y-5796D02*
G01X25728Y-5830D01*
G01X25766D01*
G01X26050D01*
G01X25979Y-5952D01*
G01X25908Y-6075D01*
G01X25837Y-5952D01*
G01X25766Y-5830D01*
G01X25728D01*
G01X25908Y-6142D01*
G01X26008Y-5969D01*
G01X26108Y-5796D01*
G37*
G36*
G01X18343Y-4526D02*
G01X18362Y-4560D01*
G01X18400D01*
G01X18684D01*
G01X18613Y-4682D01*
G01X18542Y-4805D01*
G01X18471Y-4682D01*
G01X18400Y-4560D01*
G01X18362D01*
G01X18542Y-4872D01*
G01X18642Y-4699D01*
G01X18742Y-4526D01*
G37*
G36*
G01X1960Y-17252D02*
G01X1979Y-17285D01*
G01X2017D01*
G01X2301D01*
G01X2230Y-17408D01*
G01X2159Y-17531D01*
G01X2088Y-17408D01*
G01X2017Y-17285D01*
G01X1979D01*
G01X2159Y-17597D01*
G01X2259Y-17424D01*
G01X2359Y-17252D01*
G37*
G36*
G01X1960Y-18776D02*
G01X1979Y-18809D01*
G01X2017D01*
G01X2301D01*
G01X2230Y-18932D01*
G01X2159Y-19055D01*
G01X2088Y-18932D01*
G01X2017Y-18809D01*
G01X1979D01*
G01X2159Y-19121D01*
G01X2259Y-18948D01*
G01X2359Y-18776D01*
G37*
G36*
G01X1960Y-20249D02*
G01X1979Y-20282D01*
G01X2017D01*
G01X2301D01*
G01X2230Y-20405D01*
G01X2159Y-20528D01*
G01X2088Y-20405D01*
G01X2017Y-20282D01*
G01X1979D01*
G01X2159Y-20594D01*
G01X2259Y-20422D01*
G01X2359Y-20249D01*
G37*
G36*
G01X24185Y-3002D02*
G01X24204Y-3036D01*
G01X24242D01*
G01X24526D01*
G01X24455Y-3158D01*
G01X24384Y-3281D01*
G01X24313Y-3158D01*
G01X24242Y-3036D01*
G01X24204D01*
G01X24384Y-3348D01*
G01X24484Y-3175D01*
G01X24584Y-3002D01*
G37*
G36*
G01X24947Y-3002D02*
G01X24966Y-3036D01*
G01X25004D01*
G01X25288D01*
G01X25217Y-3158D01*
G01X25146Y-3281D01*
G01X25075Y-3158D01*
G01X25004Y-3036D01*
G01X24966D01*
G01X25146Y-3348D01*
G01X25246Y-3175D01*
G01X25346Y-3002D01*
G37*
G36*
G01X25709Y-3002D02*
G01X25728Y-3036D01*
G01X25766D01*
G01X26050D01*
G01X25979Y-3158D01*
G01X25908Y-3281D01*
G01X25837Y-3158D01*
G01X25766Y-3036D01*
G01X25728D01*
G01X25908Y-3348D01*
G01X26008Y-3175D01*
G01X26108Y-3002D01*
G37*
G36*
G01X24185Y-8590D02*
G01X24204Y-8624D01*
G01X24242D01*
G01X24526D01*
G01X24455Y-8746D01*
G01X24384Y-8869D01*
G01X24313Y-8746D01*
G01X24242Y-8624D01*
G01X24204D01*
G01X24384Y-8936D01*
G01X24484Y-8763D01*
G01X24584Y-8590D01*
G37*
G36*
G01X24947Y-8590D02*
G01X24966Y-8624D01*
G01X25004D01*
G01X25288D01*
G01X25217Y-8746D01*
G01X25146Y-8869D01*
G01X25075Y-8746D01*
G01X25004Y-8624D01*
G01X24966D01*
G01X25146Y-8936D01*
G01X25246Y-8763D01*
G01X25346Y-8590D01*
G37*
G36*
G01X25709Y-8590D02*
G01X25728Y-8624D01*
G01X25766D01*
G01X26050D01*
G01X25979Y-8746D01*
G01X25908Y-8869D01*
G01X25837Y-8746D01*
G01X25766Y-8624D01*
G01X25728D01*
G01X25908Y-8936D01*
G01X26008Y-8763D01*
G01X26108Y-8590D01*
G37*
G36*
G01X12119Y-5161D02*
G01X12139Y-5195D01*
G01X12177D01*
G01X12461D01*
G01X12390Y-5317D01*
G01X12319Y-5440D01*
G01X12248Y-5317D01*
G01X12177Y-5195D01*
G01X12139D01*
G01X12219Y-5334D01*
G01X12319Y-5507D01*
G01X12419Y-5334D01*
G01X12519Y-5161D01*
G37*
G36*
G01X3865Y-12969D02*
G01X3884Y-13003D01*
G01X3922D01*
G01X4206D01*
G01X4135Y-13125D01*
G01X4064Y-13248D01*
G01X3993Y-13125D01*
G01X3922Y-13003D01*
G01X3884D01*
G01X4064Y-13315D01*
G01X4164Y-13142D01*
G01X4264Y-12969D01*
G37*
G36*
G01X3809Y-10869D02*
G01X3828Y-10902D01*
G01X3866D01*
G01X4150D01*
G01X4079Y-11025D01*
G01X4008Y-11148D01*
G01X3937Y-11025D01*
G01X3866Y-10902D01*
G01X3828D01*
G01X4008Y-11214D01*
G01X4108Y-11041D01*
G01X4208Y-10869D01*
G37*
G36*
G01X3809Y-1740D02*
G01X3828Y-1773D01*
G01X3866D01*
G01X4150D01*
G01X4079Y-1896D01*
G01X4008Y-2019D01*
G01X3937Y-1896D01*
G01X3866Y-1773D01*
G01X3828D01*
G01X4008Y-2085D01*
G01X4108Y-1913D01*
G01X4208Y-1740D01*
G37*
G36*
G01X3809Y-9360D02*
G01X3828Y-9393D01*
G01X3866D01*
G01X4150D01*
G01X4079Y-9516D01*
G01X4008Y-9639D01*
G01X3937Y-9516D01*
G01X3866Y-9393D01*
G01X3828D01*
G01X4008Y-9705D01*
G01X4108Y-9533D01*
G01X4208Y-9360D01*
G37*
G36*
G01X24043Y-17673D02*
G01X24062Y-17707D01*
G01X24100D01*
G01X24383D01*
G01X24313Y-17829D01*
G01X24242Y-17952D01*
G01X24171Y-17829D01*
G01X24100Y-17707D01*
G01X24062D01*
G01X24242Y-18019D01*
G01X24341Y-17846D01*
G01X24441Y-17673D01*
G37*
G36*
G01X17501Y-12146D02*
G01X17520Y-12180D01*
G01X17558D01*
G01X17842D01*
G01X17771Y-12302D01*
G01X17700Y-12425D01*
G01X17629Y-12302D01*
G01X17558Y-12180D01*
G01X17520D01*
G01X17600Y-12319D01*
G01X17700Y-12492D01*
G01X17899Y-12146D01*
G37*
G36*
G01X13135Y-12146D02*
G01X13155Y-12180D01*
G01X13193D01*
G01X13477D01*
G01X13406Y-12302D01*
G01X13335Y-12425D01*
G01X13264Y-12302D01*
G01X13193Y-12180D01*
G01X13155D01*
G01X13235Y-12319D01*
G01X13335Y-12492D01*
G01X13435Y-12319D01*
G01X13535Y-12146D01*
G37*
G36*
G01X3865Y-14370D02*
G01X3884Y-14404D01*
G01X3922D01*
G01X4206D01*
G01X4135Y-14526D01*
G01X4064Y-14649D01*
G01X3993Y-14526D01*
G01X3922Y-14404D01*
G01X3884D01*
G01X4064Y-14716D01*
G01X4164Y-14543D01*
G01X4264Y-14370D01*
G37*
G04 Image End*
G54D10*

M02*
